<svg width="56" height="56" viewBox="0 0 56 56" fill="none" xmlns="http://www.w3.org/2000/svg">
<path d="M45.7801 8.94118L35.0862 22.2745C39.059 23.3726 42.2155 25.3072 44.5556 28.0784C46.9502 30.8497 48.1475 34.1438 48.1475 37.9608C48.1475 43.6078 46.161 48.0262 42.1883 51.2157C38.3243 54.4052 33.508 56 27.7393 56C23.2223 56 19.2223 55.0066 15.7393 53.0196C12.2563 50.9804 9.7257 48.1046 8.14746 44.3922L17.7801 39.0588C19.1406 43.2941 22.4604 45.4118 27.7393 45.4118C30.6237 45.4118 32.8549 44.7581 34.4332 43.451C36.0658 42.0915 36.8822 40.2615 36.8822 37.9608C36.8822 35.7125 36.0658 33.9085 34.4332 32.549C32.8549 31.1895 30.6237 30.5098 27.7393 30.5098H25.2903L20.9638 24.2353L32.2291 10.1177H9.86175V0H45.7801V8.94118Z" fill="#B1B1B1"/>
</svg>
