<svg width="70" height="70" viewBox="0 0 70 70" fill="none" xmlns="http://www.w3.org/2000/svg">
<path d="M58.3926 51.4883H50.0664V48.9727H58.3926C59.3086 48.9727 60.0605 48.2207 60.0605 47.3047V45.1172H62.5762V47.3047C62.5625 49.6289 60.6895 51.4883 58.3926 51.4883Z" fill="#FF5147"/>
<path d="M36.0254 69.3164C35.4512 69.3164 34.877 69.248 34.3301 69.125L17.7461 65.4609V34.3574H20.2617V63.4375L34.8633 66.6777C35.2461 66.7598 35.6289 66.8008 36.0254 66.8008H45.5547H54.7012C55.6172 66.8008 56.3691 66.0488 56.3691 65.1328V62.9453H58.8848V65.1328C58.8848 67.4297 57.0117 69.3027 54.7148 69.3027H45.5684L36.0254 69.3164Z" fill="#FF5147"/>
<path d="M60.3066 42.5879H51.1328V40.0723H60.3066C61.2227 40.0723 61.9746 39.3203 61.9746 38.4043V35.3281C61.9746 34.4121 61.2227 33.6602 60.3066 33.6602H41.3164L43.627 23.2832C43.873 22.1895 43.9004 21.082 43.7227 19.9746L42.5332 12.4961C42.4375 11.8945 41.918 11.457 41.3027 11.457H38.7871C38.1719 11.457 37.6387 11.9219 37.5566 12.5371L36.5723 20.207L34.3437 25.8398C33.4961 27.959 31.9512 29.7363 29.9687 30.8574L25.1289 33.5918L23.8984 31.4043L28.7383 28.6699C30.2285 27.8359 31.3906 26.4961 32.0195 24.9102L34.1387 19.5918L35.082 12.2363C35.3281 10.377 36.9277 8.96875 38.8008 8.96875H41.3164C43.1758 8.96875 44.7344 10.2949 45.0215 12.127L46.2109 19.6055C46.4434 21.0273 46.3887 22.4629 46.0742 23.8574L44.4473 31.1719H60.293C62.5898 31.1719 64.4629 33.0449 64.4629 35.3418V38.418C64.4766 40.7148 62.6035 42.5879 60.3066 42.5879Z" fill="#FF5147"/>
<path d="M56.2598 60.4023H49V57.8867H56.2598C57.1758 57.8867 57.9277 57.1348 57.9277 56.2188V54.0312H60.4297V56.2188C60.4297 58.5293 58.5566 60.4023 56.2598 60.4023Z" fill="#FF5147"/>
<path d="M20.2617 68.4551H5.72852V36.5313H8.23047V65.9395H17.7461V32.8262H5.72852V30.3242H20.2617V68.4551Z" fill="#FF5147"/>
<path d="M14.2461 58.0234H11.7305V62.0156H14.2461V58.0234Z" fill="#FF5147"/>
<path d="M40.6738 0.751953H38.1582V5.08594H40.6738V0.751953Z" fill="#FF5147"/>
<path d="M52.8965 13.3027H48.5625V15.8184H52.8965V13.3027Z" fill="#FF5147"/>
<path d="M31.1445 13.3027H26.8105V15.8184H31.1445V13.3027Z" fill="#FF5147"/>
<path d="M30.8257 4.42247L28.9138 6.05737L31.7304 9.3512L33.6423 7.7163L30.8257 4.42247Z" fill="#FF5147"/>
<path d="M48.0106 4.42346L45.1939 7.71729L47.1058 9.35219L49.9225 6.05836L48.0106 4.42346Z" fill="#FF5147"/>
</svg>
