<svg width="70" height="70" viewBox="0 0 70 70" fill="none" xmlns="http://www.w3.org/2000/svg">
<g clip-path="url(#clip0_685_52)">
<mask id="path-1-inside-1_685_52" fill="white">
<path fill-rule="evenodd" clip-rule="evenodd" d="M33.1113 20.0389C33.0825 19.9498 33.0536 19.8607 33.0246 19.7715L33.0245 19.7711L33.1439 19.7865L33.1113 20.0389ZM33.1113 20.0389L32.8691 20.1172L32.8321 20.003L33.1113 20.0389ZM52.9277 20.0745L52.9927 20.5751H68.872C69.4949 20.5751 70 21.0802 70 21.7031V31.3808C70 32.0037 69.4949 32.5088 68.872 32.5088H67.2349V68.7092C67.2349 69.3321 66.7298 69.8372 66.1069 69.8372H3.89308C3.27015 69.8372 2.76508 69.3321 2.76508 68.7092V32.5088H1.128C0.505069 32.5088 0 32.0038 0 31.3808V21.7031C0 21.0802 0.505086 20.5751 1.128 20.5751H17.007L17.072 20.0745C15.5939 19.6841 14.5511 19.2668 13.9956 18.8148C9.46379 15.1247 8.77854 8.43437 12.4681 3.90165C16.1593 -0.630027 22.8496 -1.31434 27.3814 2.37577C28.7137 3.4611 30.0964 5.76031 31.3854 8.50229C32.6681 11.231 33.8381 14.3535 34.7592 17.0418L35 17.7446L35.2408 17.0418C36.1619 14.3535 37.3319 11.231 38.6146 8.50235C39.9035 5.76038 41.2863 3.46122 42.6185 2.376C47.1501 -1.31422 53.8405 -0.630034 57.5315 3.90123C61.2214 8.43437 60.5362 15.1246 56.0047 18.8145C55.4491 19.2667 54.4061 19.684 52.9277 20.0745ZM49.3047 2.25474C47.4521 2.25474 45.5884 2.86686 44.0431 4.12511C43.4452 4.61212 42.8242 5.43345 42.1986 6.47367C41.57 7.5188 40.9251 8.80463 40.285 10.239C39.0046 13.108 37.7357 16.5877 36.6464 19.9607L36.523 20.3428L36.9213 20.2914C37.5711 20.2075 38.2765 20.1188 39.0275 20.0244C41.9559 19.6564 45.6082 19.1973 48.6493 18.6692C50.9606 18.2677 52.3765 17.9181 53.2435 17.6461C54.1047 17.3759 54.4431 17.1768 54.5804 17.065C58.1478 14.1602 58.6868 8.8941 55.782 5.32555C54.135 3.30353 51.7284 2.25474 49.3047 2.25474ZM20.6954 2.25474C18.2713 2.25474 15.8653 3.30325 14.2175 5.32595C11.3131 8.8941 11.8522 14.1602 15.4198 17.0651C15.557 17.1769 15.8953 17.3759 16.7564 17.6461C17.6234 17.9181 19.0393 18.2677 21.3506 18.6692C24.3918 19.1973 28.0441 19.6564 30.9724 20.0244C31.7234 20.1188 32.4288 20.2075 33.0787 20.2914L33.4769 20.3428L33.3535 19.9607C32.2643 16.5877 30.9953 13.108 29.7149 10.239C29.0748 8.80462 28.43 7.51877 27.8013 6.47362C27.1757 5.43338 26.5546 4.61202 25.9567 4.12499C24.4119 2.86712 22.5474 2.25474 20.6954 2.25474ZM36.6371 67.5811V32.5088H33.3629V67.5811H36.6371ZM38.893 62.051H64.9789V38.0389H38.893V62.051ZM31.1069 38.0389H5.02102V62.051H31.1069V38.0389ZM5.02102 35.7829H31.1069V32.5088H5.02102V35.7829ZM31.1069 64.307H5.02102V67.5811H31.1069V64.307ZM38.893 64.307V67.5811H64.9789V64.307H38.893ZM38.893 35.7829H64.9789V32.5088H38.893V35.7829ZM2.25597 30.2528H67.744V22.8311H2.25597V30.2528Z"/>
</mask>
<path fill-rule="evenodd" clip-rule="evenodd" d="M33.1113 20.0389C33.0825 19.9498 33.0536 19.8607 33.0246 19.7715L33.0245 19.7711L33.1439 19.7865L33.1113 20.0389ZM33.1113 20.0389L32.8691 20.1172L32.8321 20.003L33.1113 20.0389ZM52.9277 20.0745L52.9927 20.5751H68.872C69.4949 20.5751 70 21.0802 70 21.7031V31.3808C70 32.0037 69.4949 32.5088 68.872 32.5088H67.2349V68.7092C67.2349 69.3321 66.7298 69.8372 66.1069 69.8372H3.89308C3.27015 69.8372 2.76508 69.3321 2.76508 68.7092V32.5088H1.128C0.505069 32.5088 0 32.0038 0 31.3808V21.7031C0 21.0802 0.505086 20.5751 1.128 20.5751H17.007L17.072 20.0745C15.5939 19.6841 14.5511 19.2668 13.9956 18.8148C9.46379 15.1247 8.77854 8.43437 12.4681 3.90165C16.1593 -0.630027 22.8496 -1.31434 27.3814 2.37577C28.7137 3.4611 30.0964 5.76031 31.3854 8.50229C32.6681 11.231 33.8381 14.3535 34.7592 17.0418L35 17.7446L35.2408 17.0418C36.1619 14.3535 37.3319 11.231 38.6146 8.50235C39.9035 5.76038 41.2863 3.46122 42.6185 2.376C47.1501 -1.31422 53.8405 -0.630034 57.5315 3.90123C61.2214 8.43437 60.5362 15.1246 56.0047 18.8145C55.4491 19.2667 54.4061 19.684 52.9277 20.0745ZM49.3047 2.25474C47.4521 2.25474 45.5884 2.86686 44.0431 4.12511C43.4452 4.61212 42.8242 5.43345 42.1986 6.47367C41.57 7.5188 40.9251 8.80463 40.285 10.239C39.0046 13.108 37.7357 16.5877 36.6464 19.9607L36.523 20.3428L36.9213 20.2914C37.5711 20.2075 38.2765 20.1188 39.0275 20.0244C41.9559 19.6564 45.6082 19.1973 48.6493 18.6692C50.9606 18.2677 52.3765 17.9181 53.2435 17.6461C54.1047 17.3759 54.4431 17.1768 54.5804 17.065C58.1478 14.1602 58.6868 8.8941 55.782 5.32555C54.135 3.30353 51.7284 2.25474 49.3047 2.25474ZM20.6954 2.25474C18.2713 2.25474 15.8653 3.30325 14.2175 5.32595C11.3131 8.8941 11.8522 14.1602 15.4198 17.0651C15.557 17.1769 15.8953 17.3759 16.7564 17.6461C17.6234 17.9181 19.0393 18.2677 21.3506 18.6692C24.3918 19.1973 28.0441 19.6564 30.9724 20.0244C31.7234 20.1188 32.4288 20.2075 33.0787 20.2914L33.4769 20.3428L33.3535 19.9607C32.2643 16.5877 30.9953 13.108 29.7149 10.239C29.0748 8.80462 28.43 7.51877 27.8013 6.47362C27.1757 5.43338 26.5546 4.61202 25.9567 4.12499C24.4119 2.86712 22.5474 2.25474 20.6954 2.25474ZM36.6371 67.5811V32.5088H33.3629V67.5811H36.6371ZM38.893 62.051H64.9789V38.0389H38.893V62.051ZM31.1069 38.0389H5.02102V62.051H31.1069V38.0389ZM5.02102 35.7829H31.1069V32.5088H5.02102V35.7829ZM31.1069 64.307H5.02102V67.5811H31.1069V64.307ZM38.893 64.307V67.5811H64.9789V64.307H38.893ZM38.893 35.7829H64.9789V32.5088H38.893V35.7829ZM2.25597 30.2528H67.744V22.8311H2.25597V30.2528Z" fill="#FF5147"/>
<path d="M14.4175 15.9204L14.2568 16.1178L16.5828 18.0124L16.7436 17.815L14.4175 15.9204ZM33.0246 19.7715L35.8775 18.8437L35.875 18.8359L33.0246 19.7715ZM33.1113 20.0389L34.0332 22.8938L35.843 22.3093L36.0866 20.4232L33.1113 20.0389ZM33.0245 19.7711L33.408 16.7957L28.6909 16.1876L30.1741 20.7066L33.0245 19.7711ZM33.1439 19.7865L36.1192 20.1708L36.5035 17.1948L33.5274 16.8111L33.1439 19.7865ZM32.8691 20.1172L30.0146 21.0403L30.9374 23.8935L33.791 22.972L32.8691 20.1172ZM32.8321 20.003L33.2149 17.0275L28.5216 16.4238L29.9777 20.9262L32.8321 20.003ZM52.9927 20.5751L50.0177 20.9614L50.3571 23.5751H52.9927V20.5751ZM52.9277 20.0745L52.1617 17.1739L49.6133 17.8469L49.9527 20.4607L52.9277 20.0745ZM70 21.7031L73 21.7031L73 21.7029L70 21.7031ZM67.2349 32.5088V29.5088H64.2349V32.5088H67.2349ZM2.76508 32.5088H5.76508V29.5088H2.76508V32.5088ZM17.007 20.5751V23.5751H19.6427L19.982 20.9613L17.007 20.5751ZM17.072 20.0745L20.047 20.4607L20.3863 17.8469L17.838 17.1739L17.072 20.0745ZM13.9956 18.8148L12.1013 21.1411L12.102 21.1417L13.9956 18.8148ZM12.4681 3.90165L10.142 2.00703L10.1414 2.0078L12.4681 3.90165ZM27.3814 2.37577L29.2762 0.0498903L29.2757 0.0494475L27.3814 2.37577ZM31.3854 8.50229L34.1004 7.22603L34.1004 7.22603L31.3854 8.50229ZM34.7592 17.0418L37.5972 16.0694L37.5972 16.0694L34.7592 17.0418ZM35 17.7446L32.1619 18.717L35 27.0001L37.838 18.717L35 17.7446ZM35.2408 17.0418L38.0788 18.0142L38.0788 18.0142L35.2408 17.0418ZM38.6146 8.50235L35.8996 7.22609L35.8996 7.22609L38.6146 8.50235ZM42.6185 2.376L40.7241 0.049731L40.7237 0.050058L42.6185 2.376ZM57.5315 3.90123L59.8582 2.00736L59.8575 2.00655L57.5315 3.90123ZM56.0047 18.8145L57.8984 21.1413L57.899 21.1408L56.0047 18.8145ZM44.0431 4.12511L42.1488 1.79876L42.1483 1.79918L44.0431 4.12511ZM42.1986 6.47367L39.6277 4.92742L39.6277 4.92742L42.1986 6.47367ZM40.285 10.239L43.0246 11.4616L43.0246 11.4616L40.285 10.239ZM36.6464 19.9607L33.7916 19.0388L33.7916 19.0388L36.6464 19.9607ZM36.523 20.3428L33.6682 19.4209L32.214 23.9242L36.9072 23.3181L36.523 20.3428ZM36.9213 20.2914L37.3055 23.2667L37.3055 23.2667L36.9213 20.2914ZM39.0275 20.0244L39.4016 23.001L39.4016 23.001L39.0275 20.0244ZM48.6493 18.6692L49.1626 21.6249L49.1627 21.6249L48.6493 18.6692ZM53.2435 17.6461L54.1416 20.5085L54.1416 20.5085L53.2435 17.6461ZM54.5804 17.065L56.4743 19.3916L56.4746 19.3914L54.5804 17.065ZM55.782 5.32555L58.1087 3.43167L58.108 3.43088L55.782 5.32555ZM14.2175 5.32595L11.8916 3.43118L11.8908 3.43209L14.2175 5.32595ZM15.4198 17.0651L17.3144 14.739L17.314 14.7387L15.4198 17.0651ZM16.7564 17.6461L15.8584 20.5085L15.8584 20.5085L16.7564 17.6461ZM21.3506 18.6692L20.8373 21.6249L20.8373 21.6249L21.3506 18.6692ZM30.9724 20.0244L30.5983 23.001L30.5983 23.001L30.9724 20.0244ZM33.0787 20.2914L32.6944 23.2667L32.6945 23.2667L33.0787 20.2914ZM33.4769 20.3428L33.0927 23.3181L37.786 23.9242L36.3317 19.4209L33.4769 20.3428ZM33.3535 19.9607L30.4987 20.8826L30.4987 20.8826L33.3535 19.9607ZM29.7149 10.239L26.9753 11.4616L26.9753 11.4616L29.7149 10.239ZM27.8013 6.47362L30.3722 4.92736L30.3722 4.92735L27.8013 6.47362ZM25.9567 4.12499L27.8515 1.79906L27.8509 1.7986L25.9567 4.12499ZM36.6371 32.5088H39.6371V29.5088H36.6371V32.5088ZM36.6371 67.5811V70.5811H39.6371V67.5811H36.6371ZM33.3629 32.5088V29.5088H30.3629V32.5088H33.3629ZM33.3629 67.5811H30.3629V70.5811H33.3629V67.5811ZM64.9789 62.051V65.051H67.9789V62.051H64.9789ZM38.893 62.051H35.893V65.051H38.893V62.051ZM64.9789 38.0389H67.9789V35.0389H64.9789V38.0389ZM38.893 38.0389V35.0389H35.893V38.0389H38.893ZM5.02102 38.0389V35.0389H2.02102V38.0389H5.02102ZM31.1069 38.0389H34.1069V35.0389H31.1069V38.0389ZM5.02102 62.051H2.02102V65.051H5.02102V62.051ZM31.1069 62.051V65.051H34.1069V62.051H31.1069ZM31.1069 35.7829V38.7829H34.1069V35.7829H31.1069ZM5.02102 35.7829H2.02102V38.7829H5.02102V35.7829ZM31.1069 32.5088H34.1069V29.5088H31.1069V32.5088ZM5.02102 32.5088V29.5088H2.02102V32.5088H5.02102ZM5.02102 64.307V61.307H2.02102V64.307H5.02102ZM31.1069 64.307H34.1069V61.307H31.1069V64.307ZM5.02102 67.5811H2.02102V70.5811H5.02102V67.5811ZM31.1069 67.5811V70.5811H34.1069V67.5811H31.1069ZM38.893 67.5811H35.893V70.5811H38.893V67.5811ZM38.893 64.307V61.307H35.893V64.307H38.893ZM64.9789 67.5811V70.5811H67.9789V67.5811H64.9789ZM64.9789 64.307H67.9789V61.307H64.9789V64.307ZM64.9789 35.7829V38.7829H67.9789V35.7829H64.9789ZM38.893 35.7829H35.893V38.7829H38.893V35.7829ZM64.9789 32.5088H67.9789V29.5088H64.9789V32.5088ZM38.893 32.5088V29.5088H35.893V32.5088H38.893ZM67.744 30.2528V33.2528H70.744V30.2528H67.744ZM2.25597 30.2528H-0.744033V33.2528H2.25597V30.2528ZM67.744 22.8311H70.744V19.8311H67.744V22.8311ZM2.25597 22.8311V19.8311H-0.744033V22.8311H2.25597ZM30.1717 20.6992C30.2 20.7865 30.2283 20.8737 30.2565 20.9609L35.9661 19.117C35.9367 19.026 35.9072 18.9349 35.8775 18.8437L30.1717 20.6992ZM30.1741 20.7066L30.1742 20.707L35.875 18.8359L35.8749 18.8356L30.1741 20.7066ZM33.5274 16.8111L33.408 16.7957L32.6409 22.7465L32.7603 22.7619L33.5274 16.8111ZM36.0866 20.4232L36.1192 20.1708L30.1686 19.4022L30.136 19.6547L36.0866 20.4232ZM33.791 22.972L34.0332 22.8938L32.1893 17.1841L31.9471 17.2623L33.791 22.972ZM29.9777 20.9262L30.0146 21.0403L35.7235 19.194L35.6866 19.0799L29.9777 20.9262ZM33.494 17.0634L33.2149 17.0275L32.4494 22.9785L32.7285 23.0144L33.494 17.0634ZM55.9678 20.1889L55.9028 19.6882L49.9527 20.4607L50.0177 20.9614L55.9678 20.1889ZM68.872 17.5751H52.9927V23.5751H68.872V17.5751ZM73 21.7029C72.9999 19.4233 71.1517 17.5751 68.872 17.5751V23.5751C67.838 23.5751 67.0001 22.7371 67 21.7033L73 21.7029ZM73 31.3808V21.7031H67V31.3808H73ZM68.872 35.5088C71.1517 35.5088 73 33.6606 73 31.3808H67C67 30.3468 67.8381 29.5088 68.872 29.5088V35.5088ZM67.2349 35.5088H68.872V29.5088H67.2349V35.5088ZM70.2349 68.7092V32.5088H64.2349V68.7092H70.2349ZM66.1069 72.8372C68.3867 72.8372 70.2349 70.9889 70.2349 68.7092H64.2349C64.2349 67.6752 65.073 66.8372 66.1069 66.8372V72.8372ZM3.89308 72.8372H66.1069V66.8372H3.89308V72.8372ZM-0.234919 68.7092C-0.234919 70.9889 1.61323 72.8372 3.89308 72.8372V66.8372C4.92707 66.8372 5.76508 67.6753 5.76508 68.7092H-0.234919ZM-0.234919 32.5088V68.7092H5.76508V32.5088H-0.234919ZM1.128 35.5088H2.76508V29.5088H1.128V35.5088ZM-3 31.3808C-3 33.6606 -1.15182 35.5088 1.128 35.5088V29.5088C2.16196 29.5088 3 30.3469 3 31.3808H-3ZM-3 21.7031V31.3808H3V21.7031H-3ZM1.128 17.5751C-1.15174 17.5751 -3 19.4233 -3 21.7031H3C3 22.7371 2.16191 23.5751 1.128 23.5751V17.5751ZM17.007 17.5751H1.128V23.5751H17.007V17.5751ZM14.097 19.6883L14.032 20.1889L19.982 20.9613L20.047 20.4607L14.097 19.6883ZM12.102 21.1417C13.2028 22.0374 14.8123 22.5806 16.306 22.975L17.838 17.1739C17.1757 16.999 16.6768 16.8349 16.319 16.6892C15.935 16.5329 15.8408 16.4486 15.8891 16.4879L12.102 21.1417ZM10.1414 2.0078C5.40619 7.82519 6.28475 16.4049 12.1013 21.1411L15.8898 16.4885C12.6428 13.8445 12.1509 9.04356 14.7947 5.7955L10.1414 2.0078ZM29.2757 0.0494475C23.4592 -4.68676 14.8794 -3.80908 10.142 2.00703L14.7941 5.79627C17.4391 2.54902 22.2401 2.05809 25.4872 4.7021L29.2757 0.0494475ZM34.1004 7.22603C33.4223 5.78367 32.6931 4.39976 31.9272 3.20185C31.1831 2.03789 30.3021 0.885656 29.2762 0.0498904L25.4866 4.70165C25.793 4.95121 26.2695 5.49125 26.872 6.43372C27.4529 7.34225 28.0595 8.47893 28.6704 9.77856L34.1004 7.22603ZM37.5972 16.0694C36.66 13.3339 35.4494 10.0959 34.1004 7.22603L28.6704 9.77855C29.8868 12.3662 31.0163 15.3732 31.9211 18.0142L37.5972 16.0694ZM37.838 16.7722L37.5972 16.0694L31.9211 18.0142L32.1619 18.717L37.838 16.7722ZM32.4028 16.0694L32.162 16.7722L37.838 18.717L38.0788 18.0142L32.4028 16.0694ZM35.8996 7.22609C34.5505 10.0959 33.34 13.3339 32.4028 16.0694L38.0788 18.0142C38.9837 15.3732 40.1132 12.3662 41.3296 9.77862L35.8996 7.22609ZM40.7237 0.050058C39.6978 0.885789 38.8168 2.03802 38.0727 3.20195C37.3069 4.39983 36.5776 5.78374 35.8996 7.22609L41.3296 9.77862C41.9405 8.47899 42.5471 7.34233 43.1279 6.43383C43.7304 5.49139 44.2069 4.95143 44.5132 4.70194L40.7237 0.050058ZM59.8575 2.00655C55.1202 -3.80915 46.5404 -4.6866 40.7241 0.0497311L44.5128 4.70227C47.7598 2.05817 52.5608 2.54909 55.2055 5.79591L59.8575 2.00655ZM57.899 21.1408C63.7153 16.4047 64.5937 7.82505 59.8582 2.00736L55.2049 5.7951C57.8492 9.04369 57.357 13.8446 54.1105 16.4881L57.899 21.1408ZM53.6938 22.975C55.1877 22.5805 56.7975 22.0372 57.8984 21.1413L54.1111 16.4876C54.1594 16.4483 54.0651 16.5327 53.681 16.6891C53.3232 16.8348 52.8241 16.999 52.1617 17.1739L53.6938 22.975ZM45.9373 6.45145C46.9265 5.64604 48.1147 5.25474 49.3047 5.25474V-0.745262C46.7896 -0.745262 44.2503 0.0876757 42.1488 1.79876L45.9373 6.45145ZM44.7694 8.01992C45.3449 7.06306 45.7508 6.6034 45.9378 6.45103L42.1483 1.79918C41.1397 2.62083 40.3035 3.80384 39.6277 4.92742L44.7694 8.01992ZM43.0246 11.4616C43.6362 10.0911 44.2256 8.92409 44.7694 8.01992L39.6277 4.92742C38.9144 6.11351 38.2141 7.51818 37.5455 9.01635L43.0246 11.4616ZM39.5013 20.8826C40.5712 17.5695 41.803 14.1989 43.0246 11.4616L37.5455 9.01634C36.2063 12.0171 34.9002 15.6059 33.7916 19.0388L39.5013 20.8826ZM39.3779 21.2647L39.5013 20.8826L33.7916 19.0388L33.6682 19.4209L39.3779 21.2647ZM36.537 17.3161L36.1388 17.3675L36.9072 23.3181L37.3055 23.2667L36.537 17.3161ZM38.6535 17.0478C37.9036 17.1421 37.1929 17.2314 36.537 17.3161L37.3055 23.2667C37.9493 23.1835 38.6493 23.0956 39.4016 23.001L38.6535 17.0478ZM48.136 15.7134C45.1775 16.2272 41.5989 16.6777 38.6535 17.0478L39.4016 23.001C42.3128 22.6352 46.0388 22.1675 49.1626 21.6249L48.136 15.7134ZM52.3455 14.7837C51.6507 15.0016 50.3756 15.3244 48.1359 15.7134L49.1627 21.6249C51.5457 21.211 53.1024 20.8346 54.1416 20.5085L52.3455 14.7837ZM52.6865 14.7384C52.7808 14.6616 52.8553 14.614 52.8937 14.591C52.9321 14.568 52.9437 14.5641 52.9169 14.5766C52.8591 14.6035 52.6892 14.6758 52.3455 14.7837L54.1416 20.5085C55.1076 20.2054 55.8871 19.8696 56.4743 19.3916L52.6865 14.7384ZM53.4554 7.21943C55.3147 9.50357 54.9685 12.8803 52.6862 14.7387L56.4746 19.3914C61.3271 15.4402 62.059 8.28462 58.1087 3.43167L53.4554 7.21943ZM49.3047 5.25474C50.8684 5.25474 52.4048 5.92963 53.4561 7.22022L58.108 3.43088C55.8652 0.677432 52.5884 -0.745262 49.3047 -0.745262V5.25474ZM16.5434 7.22071C17.5955 5.92928 19.1313 5.25474 20.6954 5.25474V-0.745262C17.4112 -0.745262 14.135 0.677222 11.8916 3.43118L16.5434 7.22071ZM17.314 14.7387C15.0314 12.8801 14.6853 9.50341 16.5442 7.2198L11.8908 3.43209C7.94084 8.28478 8.67299 15.4403 13.5256 19.3915L17.314 14.7387ZM17.6545 14.7837C17.3108 14.6758 17.1409 14.6036 17.0832 14.5767C17.0564 14.5642 17.0681 14.5681 17.1066 14.5912C17.1451 14.6142 17.2197 14.662 17.3144 14.739L13.5252 19.3912C14.1128 19.8697 14.8929 20.2056 15.8584 20.5085L17.6545 14.7837ZM21.864 15.7134C19.6243 15.3244 18.3492 15.0016 17.6545 14.7837L15.8584 20.5085C16.8976 20.8346 18.4542 21.211 20.8373 21.6249L21.864 15.7134ZM31.3465 17.0478C28.401 16.6777 24.8225 16.2272 21.864 15.7134L20.8373 21.6249C23.9611 22.1675 27.6871 22.6352 30.5983 23.001L31.3465 17.0478ZM33.4629 17.3161C32.807 17.2314 32.0963 17.1421 31.3465 17.0478L30.5983 23.001C31.3506 23.0956 32.0506 23.1835 32.6944 23.2667L33.4629 17.3161ZM33.8611 17.3675L33.4629 17.3161L32.6945 23.2667L33.0927 23.3181L33.8611 17.3675ZM30.4987 20.8826L30.6221 21.2647L36.3317 19.4209L36.2083 19.0388L30.4987 20.8826ZM26.9753 11.4616C28.197 14.1989 29.4288 17.5696 30.4987 20.8826L36.2083 19.0388C35.0998 15.6059 33.7937 12.0171 32.4545 9.01633L26.9753 11.4616ZM25.2305 8.01988C25.7744 8.92408 26.3637 10.0911 26.9753 11.4616L32.4545 9.01634C31.7859 7.51816 31.0856 6.11347 30.3722 4.92736L25.2305 8.01988ZM24.062 6.45091C24.2491 6.60332 24.655 7.06303 25.2305 8.01989L30.3722 4.92735C29.6963 3.80374 28.8601 2.62073 27.8515 1.79906L24.062 6.45091ZM20.6954 5.25474C21.8849 5.25474 23.0738 5.64629 24.0626 6.45137L27.8509 1.7986C25.7499 0.08795 23.2099 -0.745262 20.6954 -0.745262V5.25474ZM33.6371 32.5088V67.5811H39.6371V32.5088H33.6371ZM33.3629 35.5088H36.6371V29.5088H33.3629V35.5088ZM36.3629 67.5811V32.5088H30.3629V67.5811H36.3629ZM36.6371 64.5811H33.3629V70.5811H36.6371V64.5811ZM64.9789 59.051H38.893V65.051H64.9789V59.051ZM61.9789 38.0389V62.051H67.9789V38.0389H61.9789ZM38.893 41.0389H64.9789V35.0389H38.893V41.0389ZM41.893 62.051V38.0389H35.893V62.051H41.893ZM5.02102 41.0389H31.1069V35.0389H5.02102V41.0389ZM8.02102 62.051V38.0389H2.02102V62.051H8.02102ZM31.1069 59.051H5.02102V65.051H31.1069V59.051ZM28.1069 38.0389V62.051H34.1069V38.0389H28.1069ZM31.1069 32.7829H5.02102V38.7829H31.1069V32.7829ZM28.1069 32.5088V35.7829H34.1069V32.5088H28.1069ZM5.02102 35.5088H31.1069V29.5088H5.02102V35.5088ZM8.02102 35.7829V32.5088H2.02102V35.7829H8.02102ZM5.02102 67.307H31.1069V61.307H5.02102V67.307ZM8.02102 67.5811V64.307H2.02102V67.5811H8.02102ZM31.1069 64.5811H5.02102V70.5811H31.1069V64.5811ZM28.1069 64.307V67.5811H34.1069V64.307H28.1069ZM41.893 67.5811V64.307H35.893V67.5811H41.893ZM64.9789 64.5811H38.893V70.5811H64.9789V64.5811ZM61.9789 64.307V67.5811H67.9789V64.307H61.9789ZM38.893 67.307H64.9789V61.307H38.893V67.307ZM64.9789 32.7829H38.893V38.7829H64.9789V32.7829ZM61.9789 32.5088V35.7829H67.9789V32.5088H61.9789ZM38.893 35.5088H64.9789V29.5088H38.893V35.5088ZM41.893 35.7829V32.5088H35.893V35.7829H41.893ZM67.744 27.2528H2.25597V33.2528H67.744V27.2528ZM64.744 22.8311V30.2528H70.744V22.8311H64.744ZM2.25597 25.8311H67.744V19.8311H2.25597V25.8311ZM5.25597 30.2528V22.8311H-0.744033V30.2528H5.25597Z" fill="#FF5147" mask="url(#path-1-inside-1_685_52)"/>
</g>
<defs>
<clipPath id="clip0_685_52">
<rect width="70" height="70" fill="white"/>
</clipPath>
</defs>
</svg>
