<svg width="70" height="70" viewBox="0 0 70 70" fill="none" xmlns="http://www.w3.org/2000/svg">
<g clip-path="url(#clip0_683_2)">
<path d="M55.3571 3.14282H3.92861C1.7623 3.14282 0 4.90513 0 7.0713V37.0714C0 39.2377 1.7623 41 3.92861 41H8.92855V38.857H3.92861C2.94396 38.857 2.14293 38.056 2.14293 37.0714V23.8571H57.143V27.2142H59.2858V7.0713C59.2858 4.90513 57.5235 3.14282 55.3571 3.14282ZM57.1428 21.7143H2.14279V15.2858H57.1428V21.7143ZM57.1428 13.1428H2.14279V7.0713C2.14279 6.08651 2.94383 5.28562 3.92848 5.28562H55.357C56.3418 5.28562 57.1427 6.08665 57.1427 7.0713V13.1428H57.1428Z" fill="#FF5147"/>
<path d="M66.0714 29H14.6428C12.4765 29 10.7142 30.7623 10.7142 32.9286V62.9287C10.7142 65.095 12.4765 66.8573 14.6428 66.8573H66.0714C68.2377 66.8573 70 65.095 70 62.9287V32.9286C70 30.7623 68.2377 29 66.0714 29ZM67.8572 62.9287C67.8572 63.9135 67.0562 64.7144 66.0715 64.7144H14.6428C13.6582 64.7144 12.8572 63.9133 12.8572 62.9287V32.9286C12.8572 31.9438 13.6582 31.1429 14.6428 31.1429H66.0714C67.056 31.1429 67.8571 31.944 67.8571 32.9286V62.9287H67.8572Z" fill="#FF5147"/>
<path d="M25.4999 46.5H21.6428V49.3571H25.4999V46.5Z" fill="#FF5147"/>
<path d="M16.4285 43.0715V52.7858H30.7143V43.0715H16.4285ZM28.5715 50.6429H18.5715V45.2143H28.5715V50.6429Z" fill="#FF5147"/>
<path d="M63.2142 43.0715H58.9285V45.2143H63.2142V43.0715Z" fill="#FF5147"/>
<path d="M56.0715 43.0715H33.2143V45.2143H56.0715V43.0715Z" fill="#FF5147"/>
<path d="M48.9286 47.3572H33.2143V49.5H48.9286V47.3572Z" fill="#FF5147"/>
<path d="M61.0708 53.2856C60.2351 53.2856 59.4223 53.5111 58.713 53.9301C58.0219 53.5213 57.2167 53.2856 56.3572 53.2856C53.7971 53.2856 51.7144 55.3686 51.7144 57.9285C51.7144 60.4884 53.7973 62.5713 56.3572 62.5713C57.2167 62.5713 58.0219 62.3357 58.713 61.9268C59.4223 62.3459 60.2351 62.5713 61.0708 62.5713C63.6309 62.5713 65.7137 60.4884 65.7137 57.9285C65.7137 55.3686 63.6308 53.2856 61.0708 53.2856ZM56.3571 60.4285C54.9787 60.4285 53.857 59.307 53.857 57.9285C53.857 56.5499 54.9787 55.4284 56.3571 55.4284C57.7355 55.4284 58.8571 56.5499 58.8571 57.9285C58.8571 59.307 57.7355 60.4285 56.3571 60.4285ZM61.0708 60.4285C60.8197 60.4285 60.5732 60.3889 60.3372 60.3163C60.7576 59.6182 61 58.8012 61 57.9286C61 57.0561 60.7576 56.239 60.3372 55.541C60.573 55.4685 60.8197 55.4287 61.0708 55.4287C62.4492 55.4287 63.5709 56.5502 63.5709 57.9287C63.5709 59.3073 62.4492 60.4285 61.0708 60.4285Z" fill="#FF5147"/>
</g>
<defs>
<clipPath id="clip0_683_2">
<rect width="70" height="70" fill="white"/>
</clipPath>
</defs>
</svg>
