<svg width="70" height="70" viewBox="0 0 70 70" fill="none" xmlns="http://www.w3.org/2000/svg">
<path d="M35 44.8438C32.017 44.8438 29.0835 44.0812 26.4781 42.6286C23.8727 41.176 21.6819 39.0815 20.1136 36.544C18.5454 34.0066 17.6518 31.1103 17.5177 28.1303C17.3836 25.1504 18.0135 22.1856 19.3475 19.5175C20.6816 16.8494 22.6755 14.5667 25.1399 12.8859C27.6043 11.2052 30.4575 10.1824 33.4284 9.91447C36.3993 9.64658 39.3894 10.1426 42.1148 11.3553C44.8401 12.5681 47.2102 14.4574 49 16.8438C49.174 17.0758 49.2488 17.3675 49.2078 17.6547C49.1667 17.9419 49.0133 18.201 48.7812 18.375C48.5492 18.5491 48.2575 18.6238 47.9703 18.5828C47.6832 18.5417 47.424 18.3883 47.25 18.1563C44.9068 15.0514 41.4654 12.9595 37.6303 12.3089C33.7953 11.6582 29.8566 12.498 26.6204 14.6563C23.3842 16.8145 21.0953 20.1281 20.2222 23.9187C19.3491 27.7093 19.9578 31.6903 21.9237 35.0468C23.8897 38.4033 27.0642 40.8814 30.7974 41.974C34.5307 43.0666 38.5404 42.691 42.0058 40.9241C45.4712 39.1571 48.1302 36.1325 49.4386 32.4693C50.7469 28.806 50.6057 24.7813 49.0438 21.2188C48.9772 21.086 48.9384 20.9411 48.9296 20.7929C48.9209 20.6447 48.9424 20.4962 48.9929 20.3566C49.0434 20.2169 49.1217 20.089 49.2233 19.9807C49.3248 19.8723 49.4473 19.7858 49.5833 19.7263C49.7194 19.6668 49.8661 19.6357 50.0146 19.6347C50.1631 19.6338 50.3102 19.6631 50.447 19.7209C50.5838 19.7787 50.7074 19.8637 50.8102 19.9708C50.9131 20.0779 50.9931 20.2048 51.0453 20.3438C52.2078 23.0074 52.6886 25.9187 52.4444 28.8147C52.2001 31.7107 51.2384 34.5002 49.6461 36.9315C48.0538 39.3628 45.8811 41.3593 43.3241 42.7406C40.7671 44.122 37.9063 44.8448 35 44.8438ZM40.0531 35.4375C40.2228 35.3159 40.3542 35.1484 40.4317 34.9546C40.5092 34.7608 40.5297 34.5488 40.4906 34.3438L39.7469 29.9688L42.8969 26.8953C43.0443 26.7534 43.149 26.5729 43.1989 26.3744C43.2489 26.1759 43.2421 25.9674 43.1795 25.7725C43.1168 25.5777 43.0007 25.4043 42.8444 25.2722C42.6881 25.14 42.4979 25.0544 42.2953 25.025L37.9203 24.3906L35.9844 20.5078C35.8937 20.3258 35.754 20.1727 35.5811 20.0657C35.4082 19.9586 35.2088 19.902 35.0055 19.902C34.8021 19.902 34.6028 19.9586 34.4299 20.0657C34.2569 20.1727 34.1173 20.3258 34.0266 20.5078L32.0797 24.4563L27.7047 25.0906C27.5021 25.12 27.3119 25.2057 27.1556 25.3378C26.9993 25.47 26.8832 25.6433 26.8205 25.8382C26.7579 26.033 26.7511 26.2415 26.8011 26.44C26.851 26.6385 26.9557 26.819 27.1031 26.9609L30.2531 30.0344L29.5094 34.4094C29.476 34.61 29.4993 34.816 29.5766 35.0042C29.6539 35.1924 29.7821 35.3552 29.9468 35.4745C30.1116 35.5938 30.3063 35.6648 30.5092 35.6795C30.7121 35.6943 30.9151 35.6521 31.0953 35.5578L35 33.4688L38.8937 35.5141C39.0744 35.6077 39.2775 35.6492 39.4804 35.6337C39.6833 35.6183 39.8778 35.5465 40.0422 35.4266L40.0531 35.4375ZM34.4969 31.2703L32.0469 32.55L32.5172 29.8266C32.5459 29.6524 32.532 29.474 32.4768 29.3064C32.4216 29.1388 32.3266 28.987 32.2 28.8641L30.2203 26.9391L32.9547 26.5453C33.1299 26.519 33.2961 26.4505 33.439 26.3457C33.5819 26.2409 33.6972 26.103 33.775 25.9438L35 23.4609L36.225 25.9328C36.3028 26.092 36.4181 26.23 36.561 26.3348C36.7039 26.4396 36.8701 26.5081 37.0453 26.5344L39.7797 26.9281L37.8 28.8531C37.6734 28.9761 37.5784 29.1278 37.5232 29.2954C37.468 29.463 37.4541 29.6415 37.4828 29.8156L37.9531 32.5391L35.5141 31.2594C35.3572 31.177 35.1827 31.1339 35.0055 31.1339C34.8283 31.1339 34.6537 31.177 34.4969 31.2594V31.2703ZM40.5672 51.7125C41.7609 51.308 42.8002 50.5439 43.5422 49.525C43.9644 48.9903 44.4749 48.5316 45.0516 48.1688C45.7082 47.9358 46.4001 47.8174 47.0969 47.8188C48.3319 47.8569 49.5491 47.5173 50.5859 46.8453C51.4738 45.9816 52.0767 44.8673 52.3141 43.6516C52.4656 42.9768 52.732 42.333 53.1016 41.7484C53.5877 41.2619 54.1538 40.8624 54.775 40.5672C55.9146 40.0646 56.8727 39.2248 57.5203 38.1609C57.9428 37.0071 58.0039 35.7519 57.6953 34.5625C57.5393 33.8776 57.5023 33.1709 57.5859 32.4734C57.809 31.8392 58.1382 31.2475 58.5594 30.7234C59.3667 29.7681 59.8628 28.5889 59.9813 27.3438C59.861 26.0885 59.3568 24.9008 58.5375 23.9422C58.1161 23.4183 57.787 22.8265 57.5641 22.1922C57.4807 21.4947 57.5177 20.7881 57.6734 20.1031C57.9827 18.9138 57.9216 17.6584 57.4984 16.5047C56.8514 15.4404 55.8931 14.6004 54.7531 14.0984C54.1319 13.8033 53.5659 13.4037 53.0797 12.9172C52.7103 12.3325 52.444 11.6888 52.2922 11.0141C52.0542 9.79857 51.4514 8.68448 50.5641 7.82032C49.5272 7.14831 48.31 6.80871 47.075 6.84688C46.3782 6.84825 45.6864 6.72986 45.0297 6.49688C44.4562 6.12959 43.9494 5.66724 43.5312 5.12969C42.7893 4.11082 41.75 3.34667 40.5563 2.94219C39.3451 2.79079 38.1166 3.01208 37.0344 3.57657C36.3975 3.90065 35.7091 4.1116 35 4.20001C34.2936 4.12535 33.6053 3.92924 32.9656 3.62032C31.8832 3.05649 30.6549 2.83524 29.4438 2.98594C28.25 3.39042 27.2107 4.15457 26.4688 5.17344C26.0465 5.70817 25.5361 6.16685 24.9594 6.52969C24.3027 6.76267 23.6109 6.88106 22.9141 6.87969C21.6791 6.84152 20.4618 7.18112 19.425 7.85313C18.5371 8.71687 17.9342 9.83114 17.6969 11.0469C17.5453 11.7217 17.2789 12.3654 16.9094 12.95C16.4232 13.4365 15.8572 13.8361 15.2359 14.1313C14.0964 14.6339 13.1383 15.4737 12.4906 16.5375C12.3737 16.7817 12.2856 17.0386 12.2281 17.3031C12.1658 17.5932 12.2212 17.8962 12.3822 18.1454C12.5432 18.3946 12.7966 18.5697 13.0867 18.632C13.3768 18.6944 13.6798 18.639 13.929 18.478C14.1782 18.3169 14.3533 18.0635 14.4156 17.7734C14.4375 17.6752 14.4705 17.5798 14.5141 17.4891C14.9909 16.8494 15.6287 16.3475 16.3625 16.0344C17.2108 15.5936 17.9679 14.9961 18.5937 14.2734C19.1473 13.4769 19.5445 12.5824 19.7641 11.6375C19.911 10.8565 20.262 10.1282 20.7812 9.52657C21.4822 9.16183 22.2669 8.98829 23.0562 9.02344C24.031 9.02023 24.9962 8.8309 25.9 8.46563C26.7405 7.99475 27.483 7.36731 28.0875 6.61719C28.5601 5.96551 29.1983 5.45196 29.9359 5.12969C30.6989 5.11837 31.4521 5.30289 32.1234 5.66563C33.0159 6.08905 33.9812 6.33779 34.9672 6.39844C35.9531 6.33752 36.9183 6.08879 37.8109 5.66563C38.4823 5.30289 39.2354 5.11837 39.9984 5.12969C40.7575 5.42501 41.4227 5.92008 41.9234 6.56251C42.5277 7.31281 43.2703 7.94029 44.1109 8.41094C45.014 8.77996 45.9792 8.97301 46.9547 8.97969C47.7443 8.96042 48.525 9.14902 49.2188 9.52657C49.7319 10.1337 50.0752 10.8657 50.2141 11.6484C50.4403 12.5949 50.845 13.4895 51.4062 14.2844C52.059 14.9986 52.8424 15.5815 53.7141 16.0016C54.4453 16.3297 55.0759 16.847 55.5406 17.5C55.7439 18.2596 55.7439 19.0592 55.5406 19.8188C55.3257 20.774 55.296 21.7617 55.4531 22.7281C55.7259 23.6428 56.1714 24.4968 56.7656 25.2438C57.324 25.8588 57.7023 26.6156 57.8594 27.4313C57.7023 28.2469 57.324 29.0037 56.7656 29.6188C56.1717 30.3659 55.7261 31.2198 55.4531 32.1344C55.296 33.1008 55.3257 34.0885 55.5406 35.0438C55.7434 35.8034 55.7434 36.6029 55.5406 37.3625C55.0638 38.0021 54.426 38.504 53.6922 38.8172C52.8379 39.2033 52.0628 39.7448 51.4062 40.4141C50.8527 41.2106 50.4555 42.1052 50.2359 43.05C50.089 43.831 49.738 44.5593 49.2188 45.1609C48.5178 45.5257 47.7331 45.6992 46.9437 45.6641C45.969 45.6673 45.0038 45.8566 44.1 46.2219C43.2595 46.6928 42.517 47.3202 41.9125 48.0703C41.4399 48.722 40.8017 49.2355 40.0641 49.5578C39.301 49.5696 38.5477 49.3851 37.8766 49.0219C36.9841 48.5985 36.0188 48.3497 35.0328 48.2891C34.0469 48.35 33.0817 48.5987 32.1891 49.0219C31.5179 49.3851 30.7646 49.5696 30.0016 49.5578C29.2425 49.2625 28.5773 48.7674 28.0766 48.125C27.4723 47.3747 26.7297 46.7472 25.8891 46.2766C24.986 45.9076 24.0208 45.7145 23.0453 45.7078C22.2557 45.7271 21.475 45.5385 20.7812 45.1609C20.2681 44.5538 19.9247 43.8218 19.7859 43.0391C19.5597 42.0926 19.155 41.198 18.5937 40.4031C17.941 39.6889 17.1576 39.106 16.2859 38.6859C15.5547 38.3578 14.9241 37.8405 14.4594 37.1875C14.2561 36.428 14.2561 35.6283 14.4594 34.8688C14.6743 33.9135 14.704 32.9258 14.5469 31.9594C14.2741 31.0447 13.8286 30.1907 13.2344 29.4438C12.676 28.8287 12.2977 28.0719 12.1406 27.2563C12.2982 26.4408 12.6765 25.6841 13.2344 25.0688L13.5953 24.5438C14.0298 23.9429 14.3521 23.2685 14.5469 22.5531C14.6618 21.8835 14.6618 21.1993 14.5469 20.5297C14.5296 20.3861 14.4843 20.2472 14.4134 20.1211C14.3425 19.995 14.2475 19.8841 14.1337 19.7947C14.02 19.7054 13.8897 19.6393 13.7504 19.6002C13.6111 19.5612 13.4655 19.55 13.3219 19.5672C13.1782 19.5844 13.0394 19.6298 12.9133 19.7007C12.7872 19.7716 12.6763 19.8666 12.5869 19.9804C12.4975 20.0941 12.4314 20.2243 12.3924 20.3636C12.3534 20.5029 12.3421 20.6486 12.3594 20.7922C12.4314 21.2157 12.4314 21.6484 12.3594 22.0719C12.22 22.5272 12.0056 22.956 11.725 23.3406L11.3859 23.8328C10.5733 24.8308 10.095 26.059 10.0187 27.3438C10.139 28.599 10.6431 29.7868 11.4625 30.7453C11.8839 31.2692 12.213 31.861 12.4359 32.4953C12.5193 33.1928 12.4823 33.8994 12.3266 34.5844C12.0173 35.7737 12.0784 37.0291 12.5016 38.1828C13.1486 39.2471 14.1069 40.0871 15.2469 40.5891C15.8681 40.8843 16.4341 41.2838 16.9203 41.7703C17.2897 42.355 17.556 42.9987 17.7078 43.6734C17.9458 44.8889 18.5486 46.003 19.4359 46.8672C20.4728 47.5392 21.69 47.8788 22.925 47.8406C23.6218 47.8393 24.3136 47.9577 24.9703 48.1906C25.5469 48.5536 26.0573 49.0123 26.4797 49.5469C27.2217 50.5658 28.2609 51.3299 29.4547 51.7344C30.6658 51.8844 31.8939 51.6632 32.9766 51.1C33.6108 50.7809 34.2953 50.5737 35 50.4875C35.7064 50.5622 36.3947 50.7583 37.0344 51.0672C37.9032 51.4795 38.842 51.7244 39.8016 51.7891C40.0556 51.7883 40.3088 51.7589 40.5563 51.7016L40.5672 51.7125ZM17.5 40.5781L15.1812 66.1063L29.8047 51.4719C29.9839 51.2626 30.0775 50.9935 30.0669 50.7182C30.0562 50.443 29.9421 50.1818 29.7473 49.987C29.5525 49.7923 29.2914 49.6781 29.0162 49.6675C28.7409 49.6569 28.4717 49.7505 28.2625 49.9297L15.1375 63.0547L13.9453 55.8688C13.9076 55.6446 13.8009 55.4378 13.6402 55.277C13.4794 55.1163 13.2726 55.0096 13.0484 54.9719L5.85156 53.7688L18.025 41.5625C18.2042 41.3533 18.2978 41.0841 18.2872 40.8089C18.2766 40.5336 18.1624 40.2725 17.9676 40.0777C17.7729 39.8829 17.5117 39.7688 17.2365 39.7581C16.9612 39.7475 16.692 39.8411 16.4828 40.0203L2.8 53.725C2.65901 53.867 2.55969 54.045 2.51286 54.2396C2.46602 54.4341 2.47347 54.6378 2.53438 54.8285C2.59529 55.0191 2.70733 55.1894 2.85831 55.3207C3.00928 55.4521 3.1934 55.5395 3.39062 55.5734L11.9 56.9953L13.3219 65.5047C13.3558 65.7019 13.4433 65.886 13.5746 66.037C13.706 66.188 13.8762 66.3 14.0669 66.3609C14.2575 66.4219 14.4612 66.4293 14.6557 66.3825C14.8503 66.3356 15.0283 66.2363 15.1703 66.0953L17.5 40.5781ZM59.7297 47.8078C59.9334 47.6029 60.0477 47.3257 60.0477 47.0367C60.0477 46.7478 59.9334 46.4706 59.7297 46.2656L53.5938 40.1516C53.3845 39.9724 53.1154 39.8787 52.8401 39.8894C52.5648 39.9 52.3037 40.0141 52.1089 40.2089C51.9141 40.4037 51.8 40.6648 51.7894 40.9401C51.7787 41.2154 51.8724 41.4845 52.0516 41.6938L58.1547 47.7969C58.3596 48.0006 58.6368 48.1149 58.9258 48.1149C59.2147 48.1149 59.4919 48.0006 59.6969 47.7969L59.7297 47.8078ZM55.9344 66.4016C56.1258 66.3399 56.2965 66.2265 56.4277 66.0741C56.5589 65.9217 56.6456 65.736 56.6781 65.5375L58.1 57.0281L66.6094 55.6063C66.8066 55.5723 66.9907 55.4849 67.1417 55.3535C67.2927 55.2222 67.4047 55.0519 67.4656 54.8613C67.5265 54.6706 67.534 54.467 67.4871 54.2724C67.4403 54.0778 67.341 53.8998 67.2 53.7578L64.0937 50.6297C63.8845 50.4505 63.6154 50.3569 63.3401 50.3675C63.0648 50.3781 62.8037 50.4923 62.6089 50.687C62.4141 50.8818 62.3 51.143 62.2894 51.4182C62.2787 51.6935 62.3724 51.9626 62.5516 52.1719L64.1484 53.7688L56.9625 54.9609C56.7383 54.9987 56.5315 55.1054 56.3708 55.2661C56.21 55.4268 56.1034 55.6337 56.0656 55.8578L54.8734 63.0438L42.3391 50.5203C42.1298 50.3411 41.8607 50.2475 41.5854 50.2581C41.3101 50.2688 41.049 50.3829 40.8542 50.5777C40.6594 50.7725 40.5453 51.0336 40.5347 51.3089C40.5241 51.5841 40.6177 51.8533 40.7969 52.0625L54.8187 66.1063C54.959 66.2468 55.135 66.3466 55.3277 66.3948C55.5204 66.4429 55.7225 66.4377 55.9125 66.3797L55.9344 66.4016ZM61.25 48.125C61.0337 48.125 60.8222 48.1892 60.6423 48.3093C60.4625 48.4295 60.3223 48.6003 60.2395 48.8002C60.1567 49.0001 60.1351 49.22 60.1773 49.4321C60.2195 49.6443 60.3236 49.8392 60.4766 49.9922C60.6296 50.1451 60.8245 50.2493 61.0366 50.2915C61.2488 50.3337 61.4687 50.312 61.6686 50.2292C61.8684 50.1465 62.0392 50.0063 62.1594 49.8264C62.2796 49.6465 62.3438 49.4351 62.3438 49.2188C62.3438 48.9287 62.2285 48.6505 62.0234 48.4454C61.8183 48.2402 61.5401 48.125 61.25 48.125Z" fill="#00A3D3"/>
</svg>
