<svg width="24" height="24" viewBox="0 0 24 24" fill="none" xmlns="http://www.w3.org/2000/svg">
<path d="M18.4615 0H5.53846C4.00984 0 2.76923 1.24062 2.76923 2.76923V21.2308C2.76923 22.7594 4.00984 24 5.53846 24H18.4615C19.9901 24 21.2308 22.7594 21.2308 21.2308V2.76923C21.2308 1.24062 19.9901 0 18.4615 0ZM19.3846 7.38462C19.3846 7.89323 18.9701 8.30769 18.4615 8.30769H5.53846C5.02984 8.30769 4.61538 7.89323 4.61538 7.38462V2.76923C4.61538 2.26062 5.02984 1.84615 5.53846 1.84615H18.4615C18.9701 1.84615 19.3846 2.26062 19.3846 2.76923V7.38462ZM8.30769 12C8.30769 12.5086 7.89323 12.9231 7.38461 12.9231H5.53846C5.02984 12.9231 4.61538 12.5086 4.61538 12V11.0769C4.61538 10.5683 5.02984 10.1538 5.53846 10.1538H7.38461C7.89323 10.1538 8.30769 10.5683 8.30769 11.0769V12ZM13.8461 12C13.8461 12.5086 13.4317 12.9231 12.9231 12.9231H11.0769C10.5683 12.9231 10.1538 12.5086 10.1538 12V11.0769C10.1538 10.5683 10.5683 10.1538 11.0769 10.1538H12.9231C13.4317 10.1538 13.8461 10.5683 13.8461 11.0769V12ZM19.3846 12C19.3846 12.5086 18.9701 12.9231 18.4615 12.9231H16.6154C16.1068 12.9231 15.6923 12.5086 15.6923 12V11.0769C15.6923 10.5683 16.1068 10.1538 16.6154 10.1538H18.4615C18.9701 10.1538 19.3846 10.5683 19.3846 11.0769V12ZM8.30769 16.6154C8.30769 17.124 7.89323 17.5385 7.38461 17.5385H5.53846C5.02984 17.5385 4.61538 17.124 4.61538 16.6154V15.6923C4.61538 15.1837 5.02984 14.7692 5.53846 14.7692H7.38461C7.89323 14.7692 8.30769 15.1837 8.30769 15.6923V16.6154ZM13.8461 16.6154C13.8461 17.124 13.4317 17.5385 12.9231 17.5385H11.0769C10.5683 17.5385 10.1538 17.124 10.1538 16.6154V15.6923C10.1538 15.1837 10.5683 14.7692 11.0769 14.7692H12.9231C13.4317 14.7692 13.8461 15.1837 13.8461 15.6923V16.6154ZM19.3846 16.6154C19.3846 17.124 18.9701 17.5385 18.4615 17.5385H16.6154C16.1068 17.5385 15.6923 17.124 15.6923 16.6154V15.6923C15.6923 15.1837 16.1068 14.7692 16.6154 14.7692H18.4615C18.9701 14.7692 19.3846 15.1837 19.3846 15.6923V16.6154ZM8.30769 21.2308C8.30769 21.7394 7.89323 22.1538 7.38461 22.1538H5.53846C5.02984 22.1538 4.61538 21.7394 4.61538 21.2308V20.3077C4.61538 19.7991 5.02984 19.3846 5.53846 19.3846H7.38461C7.89323 19.3846 8.30769 19.7991 8.30769 20.3077V21.2308ZM13.8461 21.2308C13.8461 21.7394 13.4317 22.1538 12.9231 22.1538H11.0769C10.5683 22.1538 10.1538 21.7394 10.1538 21.2308V20.3077C10.1538 19.7991 10.5683 19.3846 11.0769 19.3846H12.9231C13.4317 19.3846 13.8461 19.7991 13.8461 20.3077V21.2308ZM19.3846 21.2308C19.3846 21.7394 18.9701 22.1538 18.4615 22.1538H16.6154C16.1068 22.1538 15.6923 21.7394 15.6923 21.2308V20.3077C15.6923 19.7991 16.1068 19.3846 16.6154 19.3846H18.4615C18.9701 19.3846 19.3846 19.7991 19.3846 20.3077V21.2308Z" fill="#00A3D3"/>
<path d="M17.5385 3.69231V6.46154H15.6924V3.69231H17.5385ZM17.5385 2.76923H15.6924C15.1837 2.76923 14.7693 3.18369 14.7693 3.69231V6.46154C14.7693 6.97015 15.1837 7.38461 15.6924 7.38461H17.5385C18.0471 7.38461 18.4616 6.97015 18.4616 6.46154V3.69231C18.4616 3.18369 18.0471 2.76923 17.5385 2.76923Z" fill="#00A3D3"/>
</svg>
