<svg width="24" height="24" viewBox="0 0 24 24" fill="none" xmlns="http://www.w3.org/2000/svg">
<g clip-path="url(#clip0_79_526)">
<path opacity="0.998" fill-rule="evenodd" clip-rule="evenodd" d="M3.70973 1.99139C4.05742 1.94688 4.35366 2.04709 4.5985 2.29198C5.64307 3.8835 6.68189 5.47897 7.71496 7.07839C7.81736 7.47696 7.7789 7.86235 7.59953 8.23453C7.034 9.1981 6.44534 10.1461 5.83354 11.0786C6.09013 11.7546 6.42486 12.3867 6.83773 12.9747C7.93364 14.5194 9.24562 15.849 10.7737 16.9634C11.4332 17.4383 12.145 17.8198 12.909 18.1079C13.7609 17.5554 14.6188 17.012 15.483 16.4778C15.7427 16.3243 16.0198 16.2164 16.3141 16.1541C16.4603 16.1386 16.6065 16.1386 16.7527 16.1541C16.8247 16.1786 16.8939 16.2094 16.9604 16.2466C18.5518 17.278 20.137 18.3185 21.7159 19.3681C21.8798 19.5557 21.9643 19.7753 21.9698 20.0271C21.9532 20.3091 21.8724 20.5712 21.7275 20.8133C21.0762 21.7047 20.3491 22.5334 19.5459 23.299C19.2692 23.5531 18.9614 23.7612 18.6225 23.9233C18.4693 23.9483 18.3154 23.9675 18.1608 23.9811C17.053 23.9527 15.9834 23.733 14.9521 23.3221C13.4013 22.6886 11.9624 21.8714 10.6352 20.8711C7.60267 18.5813 4.96714 15.9029 2.72863 12.836C1.91336 11.6811 1.22851 10.4479 0.674077 9.13632C0.229647 8.05889 -0.00505893 6.93744 -0.0300113 5.77196C-0.0333887 5.54318 0.0243304 5.33124 0.143125 5.13608C0.378383 4.78471 0.640003 4.45329 0.92801 4.1418C1.65786 3.37165 2.46198 2.69726 3.34038 2.11856C3.46379 2.06839 3.5869 2.026 3.70973 1.99139Z" fill="#00A3D3"/>
<path opacity="0.999" fill-rule="evenodd" clip-rule="evenodd" d="M15.3334 0.990002C15.3778 1.5607 15.3927 2.13965 15.378 2.72684C16.8658 2.71591 18.3531 2.72749 19.8399 2.76158C21.2102 3.06469 22.1063 3.90996 22.5282 5.29737C22.5695 5.46506 22.5991 5.63487 22.6174 5.80684C22.6286 7.86787 22.6324 9.92893 22.6286 11.99C21.8849 11.99 21.1413 11.99 20.3976 11.99C20.4014 10.0602 20.3976 8.13034 20.3865 6.20053C20.347 5.61148 20.0533 5.23709 19.5053 5.07737C18.13 5.04351 16.7542 5.03193 15.378 5.04263C15.3854 5.62179 15.378 6.20074 15.3557 6.77948C14.1089 5.81993 12.8671 4.85501 11.63 3.88474C12.8651 2.91961 14.0996 1.95471 15.3334 0.990002Z" fill="#00A3D3"/>
</g>
<defs>
<clipPath id="clip0_79_526">
<rect width="24" height="24" fill="white"/>
</clipPath>
</defs>
</svg>
