<svg width="380" height="92" viewBox="0 0 380 92" fill="none" xmlns="http://www.w3.org/2000/svg">
<g clip-path="url(#clip0_651_8296)">
<path d="M61.3322 65.1013C62.9789 65.1013 64.7522 63.6827 64.3216 62.112L61.7629 52.764C61.3322 51.168 60.4202 49.7747 58.7736 49.7747H57.5069V49.724L26.1189 49.7747C21.7869 49.7747 18.7722 48.8627 17.0749 47.064C15.3776 45.24 14.5162 42.2 14.5162 37.9187L14.4909 26.9747C14.4909 23.0733 15.3522 20.236 17.0749 18.4373C18.7976 16.6387 21.8376 15.752 26.1696 15.7267L38.8362 15.7013C45.4482 15.7013 52.1869 15.6253 58.7229 15.6253C60.3696 15.6253 61.2816 14.2067 61.7122 12.636L64.2456 3.26268C64.6762 1.66668 62.9029 0.273346 61.2562 0.273346L22.8509 0.324013C14.3896 0.324013 8.43622 2.07201 5.04156 5.54268C1.64689 9.01334 -0.0504445 14.9413 -0.0251112 23.352L0.000222133 41.364C0.000222133 49.5213 1.90022 55.5507 5.64956 59.4013C9.39889 63.252 15.1749 65.1773 22.9522 65.1773C35.7456 65.152 48.5642 65.1267 61.3576 65.1267L61.3322 65.1013ZM137.231 3.54135C137.231 1.89468 135.812 0.121346 134.242 0.552013L124.868 3.11068C123.272 3.54135 121.879 4.45335 121.879 6.10001V7.36668H121.828L121.879 38.7547C121.879 43.0867 120.967 46.1013 119.168 47.7987C117.344 49.496 114.304 50.3573 110.023 50.3573L99.0789 50.3827C95.1776 50.3827 92.3402 49.5213 90.5416 47.7987C88.7429 46.076 87.8562 43.036 87.8309 38.704L87.8056 26.0373C87.8056 19.4253 87.7296 12.6867 87.7296 6.15068C87.7296 4.50401 86.3362 3.59201 84.7402 3.16135L75.3669 0.628013C73.7709 0.197346 72.3776 1.97068 72.3776 3.61735L72.4282 42.0227C72.4282 50.484 74.1762 56.4373 77.6469 59.832C81.1176 63.2267 87.0456 64.924 95.4562 64.8987L113.468 64.8733C121.626 64.8733 127.655 62.9733 131.506 59.2493C135.356 55.5 137.282 49.724 137.282 41.9467C137.256 29.1533 137.231 16.3347 137.231 3.54135ZM206.999 65.1013C208.646 65.1013 210.419 63.6827 209.988 62.112L207.43 52.764C206.999 51.168 206.087 49.7747 204.44 49.7747H203.174V49.724L171.786 49.7747C167.454 49.7747 164.439 48.8627 162.742 47.064C161.044 45.24 160.183 42.2 160.183 37.9187L160.158 26.9747C160.158 23.0733 161.019 20.236 162.742 18.4373C164.464 16.6387 167.504 15.752 171.836 15.7267L184.503 15.7013C191.115 15.7013 197.854 15.6253 204.39 15.6253C206.036 15.6253 206.948 14.2067 207.379 12.636L209.912 3.26268C210.343 1.66668 208.57 0.273346 206.923 0.273346L168.518 0.324013C160.056 0.324013 154.103 2.07201 150.708 5.54268C147.314 9.01334 145.616 14.9413 145.642 23.352L145.667 41.364C145.667 49.5213 147.567 55.5507 151.316 59.4013C155.066 63.252 160.842 65.1773 168.619 65.1773C181.412 65.152 194.231 65.1267 207.024 65.1267L206.999 65.1013ZM241.908 61.8587C241.908 63.5053 243.327 65.2787 244.898 64.848L254.246 62.2893C255.842 61.8587 257.235 60.9467 257.235 59.3V58.0333H257.286L257.235 26.6453C257.235 22.3133 258.147 19.2987 259.946 17.6013C261.77 15.904 264.81 15.0427 269.091 15.0427L280.035 15.0173C283.936 15.0173 286.774 15.8787 288.572 17.6013C290.371 19.324 291.283 22.364 291.283 26.696L291.308 39.3627C291.308 45.9747 291.384 52.7133 291.384 59.2493C291.384 60.896 292.803 61.808 294.374 62.2387L303.747 64.772C305.343 65.2027 306.736 63.4293 306.736 61.7827L306.686 23.3773C306.686 14.916 304.938 8.96268 301.467 5.56801C297.996 2.17335 292.068 0.476013 283.658 0.501346L265.646 0.526679C257.488 0.526679 251.459 2.42668 247.608 6.17601C243.758 9.92534 241.832 15.7013 241.832 23.4787C241.858 36.272 241.883 49.0907 241.883 61.884L241.908 61.8587ZM315.122 61.8587C315.122 63.5053 316.54 65.2787 318.111 64.848L327.459 62.2893C329.055 61.8587 330.448 60.9467 330.448 59.3V58.0333H330.499V53.144C341.848 53.1693 353.223 53.22 364.598 53.2453C364.598 55.272 364.623 57.2733 364.623 59.2493C364.623 60.896 366.042 61.808 367.612 62.2387L376.986 64.772C378.582 65.2027 379.975 63.4293 379.975 61.7827L379.924 23.3773C379.924 14.916 378.176 8.96268 374.706 5.56801C371.235 2.17335 365.307 0.476013 356.896 0.501346L338.884 0.526679C330.727 0.526679 324.698 2.42668 320.847 6.17601C316.996 9.92534 315.071 15.7013 315.071 23.4787C315.096 36.272 315.122 49.0907 315.122 61.884V61.8587ZM330.499 37.8173L330.474 26.6453C330.474 22.3133 331.386 19.2987 333.184 17.6013C335.008 15.904 338.048 15.0427 342.33 15.0427L353.274 15.0173C357.175 15.0173 360.012 15.8787 361.811 17.6013C363.61 19.324 364.522 22.364 364.522 26.696L364.547 37.9187C353.223 37.8933 341.848 37.8427 330.499 37.8173ZM218.12 61.9347C218.12 63.5813 219.539 65.3547 221.11 64.924L230.458 62.3653C232.054 61.9347 233.447 61.0227 233.447 59.376C233.422 40.7307 233.574 22.0093 233.548 3.33868C233.548 1.69201 232.13 -0.0813206 230.559 0.349346L221.211 2.90801C219.615 3.33868 218.222 4.25068 218.222 5.89734C218.247 24.5427 218.095 43.264 218.12 61.9347ZM72.9602 79.6173H75.7469L79.2429 86.6093L82.7642 79.6173H85.5256V89.9027H83.7269V80.884L80.1802 87.9267H78.3056L74.7589 80.884V89.9027H72.9602V79.6173ZM94.7976 80.5547C93.4549 80.5547 92.3656 80.9347 91.5802 81.6947C90.7949 82.4547 90.3896 83.468 90.3896 84.76C90.3896 86.052 90.7949 87.0653 91.5802 87.8253C92.3656 88.5853 93.4549 88.9653 94.7976 88.9653C96.1402 88.9653 97.2042 88.5853 98.0149 87.8253C98.8002 87.0653 99.2056 86.052 99.2056 84.76C99.2056 83.468 98.8002 82.4293 98.0149 81.6947C97.2296 80.9347 96.1656 80.5547 94.7976 80.5547ZM94.7976 79.4147C96.7229 79.4147 98.2682 79.896 99.4082 80.8587C100.574 81.8213 101.131 83.1133 101.131 84.7347C101.131 86.356 100.548 87.648 99.4082 88.6107C98.2429 89.5733 96.7229 90.0547 94.7976 90.0547C92.8722 90.0547 91.3269 89.5733 90.1616 88.6107C88.9962 87.648 88.4389 86.356 88.4389 84.7347C88.4389 83.1133 89.0216 81.8213 90.1616 80.8587C91.3269 79.896 92.8722 79.4147 94.7976 79.4147ZM114.456 79.592V89.8773H112.658V81.2893L106.578 89.8773H104.07V79.592H105.868V88.18L111.948 79.592H114.456ZM106.375 76.78H107.464C107.54 77.0333 107.743 77.2107 108.047 77.3373C108.351 77.464 108.756 77.54 109.263 77.54C109.77 77.54 110.175 77.464 110.454 77.3627C110.758 77.236 110.96 77.0333 111.036 76.78H112.126C112.075 77.312 111.796 77.7427 111.29 78.0213C110.808 78.3 110.124 78.452 109.238 78.452C108.351 78.452 107.667 78.3253 107.186 78.0213C106.704 77.7427 106.426 77.3373 106.35 76.78H106.375ZM129.631 88.6867H135.711V80.7573H131.252V82.2267C131.252 84.5067 130.923 86.432 130.214 87.952C130.062 88.256 129.884 88.5093 129.631 88.712V88.6867ZM126.92 88.6867C127.731 88.408 128.263 87.9773 128.491 87.42C129.074 86.0013 129.378 84.0253 129.378 81.5173V79.5667H137.56V88.6867H139.131V92.0813H137.56V89.8773H127.807V92.0813H126.236V88.6867H126.895H126.92ZM147.491 80.5293C146.148 80.5293 145.059 80.9093 144.274 81.6693C143.488 82.4293 143.083 83.4427 143.083 84.7347C143.083 86.0267 143.488 87.04 144.274 87.8C145.059 88.56 146.148 88.94 147.491 88.94C148.834 88.94 149.898 88.56 150.708 87.8C151.494 87.04 151.899 86.0267 151.899 84.7347C151.899 83.4427 151.494 82.404 150.708 81.6693C149.923 80.9093 148.859 80.5293 147.491 80.5293ZM147.491 79.3893C149.416 79.3893 150.962 79.8707 152.102 80.8333C153.267 81.796 153.824 83.088 153.824 84.7093C153.824 86.3307 153.242 87.6227 152.102 88.5853C150.936 89.548 149.416 90.0293 147.491 90.0293C145.566 90.0293 144.02 89.548 142.855 88.5853C141.69 87.6227 141.132 86.3307 141.132 84.7093C141.132 83.088 141.715 81.796 142.855 80.8333C144.02 79.8707 145.566 79.3893 147.491 79.3893ZM156.738 79.5667H159.524L163.02 86.5587L166.542 79.5667H169.303V89.852H167.504V80.8333L163.958 87.876H162.083L158.536 80.8333V89.852H156.738V79.5667ZM191.723 79.5667H194.51L198.006 86.5587L201.527 79.5667H204.288V89.852H202.49V80.8333L198.943 87.876H197.068L193.522 80.8333V89.852H191.723V79.5667ZM213.56 80.504C212.218 80.504 211.154 80.884 210.343 81.644C209.558 82.404 209.152 83.4173 209.152 84.7093C209.152 86.0013 209.558 87.0147 210.343 87.7747C211.128 88.5347 212.218 88.9147 213.56 88.9147C214.903 88.9147 215.967 88.5347 216.778 87.7747C217.563 87.0147 217.968 86.0013 217.968 84.7093C217.968 83.4173 217.563 82.3787 216.778 81.644C215.992 80.884 214.928 80.504 213.56 80.504ZM213.56 79.364C215.486 79.364 217.031 79.8453 218.171 80.808C219.336 81.7707 219.894 83.0627 219.894 84.684C219.894 86.3053 219.311 87.5973 218.171 88.56C217.031 89.5227 215.486 90.004 213.56 90.004C211.635 90.004 210.09 89.5227 208.924 88.56C207.759 87.5973 207.202 86.3053 207.202 84.684C207.202 83.0627 207.784 81.7707 208.924 80.808C210.09 79.8453 211.635 79.364 213.56 79.364ZM224.758 82.5053C224.758 83.1133 224.986 83.5693 225.442 83.8733C225.898 84.1773 226.582 84.3293 227.468 84.3293H230.356V80.6813H227.468C226.582 80.6813 225.898 80.8333 225.442 81.1373C224.986 81.4413 224.758 81.8973 224.758 82.5053ZM222.224 89.8267L225.974 85.3427C225.366 85.216 224.656 84.9627 223.871 84.5827C223.086 84.2027 222.68 83.5187 222.68 82.5307C222.68 81.5933 223.086 80.8587 223.871 80.352C224.682 79.8453 225.847 79.592 227.443 79.592H232.18V89.8773H230.306V85.5453H227.823L224.2 89.8773H222.174L222.224 89.8267ZM245.683 79.5413H247.558V84.6333L254.195 79.5413H256.576L251.282 83.5947L256.855 89.8013H254.828L250.066 84.5067L247.558 86.432V89.8013H245.683V79.516V79.5413ZM263.239 88.5853C263.112 88.8133 262.96 89.016 262.758 89.1933C262.276 89.624 261.263 89.8267 259.718 89.8267H259.008V88.6613H259.591C260.326 88.6613 260.832 88.6107 261.111 88.484C261.288 88.408 261.415 88.2813 261.542 88.0787L261.947 87.344L257.539 79.5667H259.54L262.96 85.596L266.38 79.5667H268.382L263.239 88.6107V88.5853ZM269.876 79.5413H271.878L275.298 83.3667L278.718 79.5413H280.719L276.311 84.4813L281.023 89.8267H279.022L275.146 85.444L271.244 89.8267H269.243L274.132 84.3293L269.851 79.5413H269.876ZM283.43 79.5413H285.304V83.7467H292.043V79.5413H293.918V89.8267H292.043V84.9373H285.304V89.8267H283.43V79.5413ZM299.542 82.5053C299.542 83.1133 299.77 83.5693 300.226 83.8733C300.682 84.1773 301.366 84.3293 302.252 84.3293H305.14V80.6813H302.252C301.366 80.6813 300.682 80.8333 300.226 81.1373C299.77 81.4413 299.542 81.8973 299.542 82.5053ZM297.008 89.8267L300.758 85.3427C300.15 85.216 299.44 84.9627 298.655 84.5827C297.87 84.2027 297.49 83.5187 297.49 82.5307C297.49 81.5933 297.895 80.8587 298.68 80.352C299.466 79.8453 300.656 79.592 302.252 79.592H306.99V89.8773H305.115V85.5453H302.632L299.01 89.8773H296.983L297.008 89.8267ZM180.07 83.62C179.512 83.62 179.056 84.076 179.056 84.6333C179.056 85.1907 179.512 85.6467 180.07 85.6467C180.627 85.6467 181.083 85.1907 181.083 84.6333C181.083 84.076 180.627 83.62 180.07 83.62Z" fill="white"/>
</g>
<defs>
<clipPath id="clip0_651_8296">
<rect width="380" height="91.8637" fill="white" transform="translate(0 0.0681458)"/>
</clipPath>
</defs>
</svg>
