<svg width="70" height="70" viewBox="0 0 70 70" fill="none" xmlns="http://www.w3.org/2000/svg">
<g clip-path="url(#clip0_49_2355)">
<path d="M22.5807 48.0103C20.09 48.0103 18.0646 50.0398 18.0646 52.5355C18.0646 55.0312 20.09 57.0608 22.5807 57.0608C25.0714 57.0608 27.0968 55.0312 27.0968 52.5355C27.0968 50.0398 25.0714 48.0103 22.5807 48.0103ZM22.5807 54.7981C21.3354 54.7981 20.3226 53.7834 20.3226 52.5355C20.3226 51.2876 21.3354 50.2729 22.5807 50.2729C23.8261 50.2729 24.8388 51.2876 24.8388 52.5355C24.8388 53.7834 23.8261 54.7981 22.5807 54.7981Z" fill="#00A3D3"/>
<path d="M49.6774 48.0103C47.1867 48.0103 45.1613 50.0398 45.1613 52.5355C45.1613 55.0312 47.1867 57.0608 49.6774 57.0608C52.1681 57.0608 54.1935 55.0312 54.1935 52.5355C54.1935 50.0398 52.1681 48.0103 49.6774 48.0103ZM49.6774 54.7981C48.432 54.7981 47.4193 53.7834 47.4193 52.5355C47.4193 51.2876 48.432 50.2729 49.6774 50.2729C50.9227 50.2729 51.9354 51.2876 51.9354 52.5355C51.9354 53.7834 50.9227 54.7981 49.6774 54.7981Z" fill="#00A3D3"/>
<path d="M67.7419 36.9051V27.8331C67.7419 26.7548 67.436 25.7042 66.8588 24.7955L60.3266 14.5098C59.7009 13.5254 58.633 12.9382 57.4698 12.9382H49.6774V8.41406H12.6669L10.9733 15.2019H14.4641L14.071 17.4646H4.51611V19.7272H13.6785L12.8923 24.2524H4.51611V26.5151H12.5004L11.7148 31.0403H4.51611V33.303H11.3217L10.3399 38.9595H8.03552L6.90649 48.01H6.77418C5.52882 48.01 4.51611 49.0248 4.51611 50.2727V54.7979C4.51611 56.0458 5.52882 57.0605 6.77418 57.0605H14.77C16.3346 59.7612 19.2454 61.5858 22.5806 61.5858C25.9159 61.5858 28.8267 59.7612 30.3912 57.0605H41.8679C43.433 59.7612 46.3432 61.5858 49.6785 61.5858C53.0138 61.5858 55.9246 59.7612 57.4891 57.0605H66.3984L69.9763 40.3284L70 40.0908C70 38.6181 69.0529 37.3736 67.7419 36.9051ZM57.4698 15.2019C57.8574 15.2019 58.2141 15.3975 58.4219 15.7256L64.9541 26.0118C65.3008 26.556 65.4839 27.1857 65.4839 27.8331V36.6969H61.1712L60.7191 38.9595H42.9032V16.3333C42.9032 15.709 43.4104 15.2019 44.0322 15.2019H57.4698ZM14.4299 10.6767H47.4193V12.9393H13.8654L14.4299 10.6767ZM16.7557 15.2019H40.853C40.7262 15.5571 40.6451 15.935 40.6451 16.3333V38.9595H12.6327L16.7557 15.2019ZM10.029 41.2221H60.2676L58.9131 48.01H57.4869C55.9218 45.3093 53.0116 43.4848 49.6763 43.4848C46.341 43.4848 43.4302 45.3093 41.8657 48.01H30.3912C28.8267 45.3093 25.9159 43.4848 22.5806 43.4848C19.2454 43.4848 16.3346 45.3093 14.77 48.01H9.18109L10.029 41.2221ZM6.77418 54.7979V50.2727H13.8455C13.6581 50.998 13.5484 51.7525 13.5484 52.5353C13.5484 53.318 13.6581 54.0726 13.8455 54.7979H6.77418ZM22.5806 59.3232C18.8446 59.3232 15.8064 56.2789 15.8064 52.5353C15.8064 48.7917 18.8446 45.7474 22.5806 45.7474C26.3167 45.7474 29.3548 48.7917 29.3548 52.5353C29.3548 56.2789 26.3167 59.3232 22.5806 59.3232ZM31.3157 54.7979C31.5032 54.0726 31.6129 53.318 31.6129 52.5353C31.6129 51.7525 31.5032 50.998 31.3157 50.2727H40.9434C40.7549 50.998 40.6451 51.7525 40.6451 52.5353C40.6451 53.318 40.7549 54.0726 40.9423 54.7979H31.3157ZM49.6774 59.3232C45.9413 59.3232 42.9032 56.2789 42.9032 52.5353C42.9032 48.7917 45.9413 45.7474 49.6774 45.7474C53.4135 45.7474 56.4516 48.7917 56.4516 52.5353C56.4516 56.2789 53.4135 59.3232 49.6774 59.3232ZM64.5704 54.7979H58.4114C58.6 54.0726 58.7097 53.318 58.7097 52.5353C58.7097 51.7525 58.6 50.998 58.4125 50.2727H60.7643L63.0224 38.9595H66.6129C67.2022 38.9595 67.6879 39.413 67.7375 39.9914L64.5704 54.7979Z" fill="#00A3D3"/>
<path d="M63.2258 27.3219L57.0773 17.4648H45.1613V32.1719H63.2258V27.3219ZM60.9677 29.9093H47.4193V19.7275H55.8259L60.9677 27.9715V29.9093Z" fill="#00A3D3"/>
<path d="M45.1613 34.4346H51.9354V36.6972H45.1613V34.4346Z" fill="#00A3D3"/>
<path d="M0 17.4648H2.25806V19.7275H0V17.4648Z" fill="#00A3D3"/>
<path d="M0 24.2524H2.25806V26.5151H0V24.2524Z" fill="#00A3D3"/>
<path d="M0 31.0405H2.25806V33.3032H0V31.0405Z" fill="#00A3D3"/>
</g>
<defs>
<clipPath id="clip0_49_2355">
<rect width="70" height="70" fill="white"/>
</clipPath>
</defs>
</svg>
