<svg width="70" height="70" viewBox="0 0 70 70" fill="none" xmlns="http://www.w3.org/2000/svg">
<path d="M41.0493 25.9698C40.9535 25.8707 40.8397 25.7921 40.7145 25.7385C40.5892 25.6848 40.455 25.6572 40.3195 25.6572C40.1839 25.6572 40.0497 25.6848 39.9245 25.7385C39.7992 25.7921 39.6855 25.8707 39.5897 25.9698L25.1381 40.9051C25.0395 41.0035 24.9608 41.1212 24.9067 41.2513C24.8526 41.3815 24.8242 41.5215 24.823 41.6631C24.8218 41.8048 24.8479 41.9453 24.8998 42.0764C24.9517 42.2075 25.0284 42.3266 25.1253 42.4267C25.2222 42.5269 25.3375 42.6061 25.4643 42.6598C25.5912 42.7134 25.7271 42.7404 25.8642 42.7392C26.0012 42.7379 26.1367 42.7085 26.2626 42.6526C26.3886 42.5967 26.5025 42.5154 26.5977 42.4135L41.0493 27.4783C41.1452 27.3793 41.2212 27.2617 41.2731 27.1323C41.325 27.0029 41.3518 26.8642 41.3518 26.7241C41.3518 26.584 41.325 26.4453 41.2731 26.3158C41.2212 26.1864 41.1452 26.0689 41.0493 25.9698Z" fill="#00A3D3"/>
<path d="M27.9324 33.1252C28.7491 33.1252 29.5474 32.875 30.2264 32.4061C30.9054 31.9372 31.4346 31.2708 31.7472 30.491C32.0597 29.7113 32.1414 28.8533 31.9821 28.0255C31.8228 27.1978 31.4295 26.4374 30.8521 25.8407C30.2746 25.2439 29.5389 24.8375 28.738 24.6728C27.937 24.5082 27.1068 24.5927 26.3523 24.9156C25.5978 25.2386 24.953 25.7856 24.4993 26.4873C24.0456 27.189 23.8034 28.0141 23.8034 28.858C23.8046 29.9894 24.2401 31.074 25.0141 31.874C25.7882 32.674 26.8377 33.124 27.9324 33.1252ZM27.9324 26.7244C28.3408 26.7244 28.7399 26.8496 29.0794 27.084C29.4189 27.3184 29.6835 27.6517 29.8398 28.0415C29.9961 28.4314 30.0369 28.8604 29.9573 29.2743C29.8776 29.6882 29.681 30.0683 29.3923 30.3667C29.1035 30.6651 28.7357 30.8683 28.3352 30.9506C27.9347 31.033 27.5196 30.9907 27.1424 30.8292C26.7651 30.6677 26.4427 30.3943 26.2159 30.0434C25.989 29.6925 25.8679 29.28 25.8679 28.858C25.8685 28.2923 26.0862 27.75 26.4732 27.35C26.8603 26.95 27.3851 26.725 27.9324 26.7244Z" fill="#00A3D3"/>
<path d="M38.2549 35.2588C37.4383 35.2588 36.64 35.5091 35.961 35.9779C35.282 36.4468 34.7527 37.1133 34.4402 37.893C34.1277 38.6727 34.0459 39.5307 34.2053 40.3585C34.3646 41.1862 34.7578 41.9466 35.3353 42.5434C35.9127 43.1402 36.6485 43.5466 37.4494 43.7112C38.2504 43.8759 39.0806 43.7914 39.8351 43.4684C40.5895 43.1454 41.2344 42.5985 41.6881 41.8967C42.1418 41.195 42.384 40.37 42.384 39.526C42.3827 38.3947 41.9473 37.31 41.1732 36.51C40.3992 35.71 39.3497 35.2601 38.2549 35.2588ZM38.2549 41.6596C37.8466 41.6596 37.4475 41.5345 37.108 41.3C36.7685 41.0656 36.5038 40.7324 36.3476 40.3425C36.1913 39.9526 36.1504 39.5236 36.2301 39.1098C36.3098 38.6959 36.5064 38.3157 36.7951 38.0173C37.0838 37.7189 37.4517 37.5157 37.8522 37.4334C38.2527 37.3511 38.6678 37.3933 39.045 37.5548C39.4222 37.7163 39.7447 37.9898 39.9715 38.3406C40.1984 38.6915 40.3195 39.104 40.3195 39.526C40.3189 40.0917 40.1012 40.6341 39.7142 41.0341C39.3271 41.4341 38.8023 41.659 38.2549 41.6596Z" fill="#00A3D3"/>
<path d="M62.2182 27.8113C61.3642 27.0592 60.7298 26.0761 60.3862 24.9722C60.0426 23.8683 60.0034 22.6872 60.273 21.5616C60.5585 20.3845 60.5909 19.1571 60.368 17.9657C60.1452 16.7742 59.6725 15.6477 58.9832 14.6654C58.2938 13.683 57.4046 12.8686 56.3781 12.2796C55.3515 11.6905 54.2125 11.341 53.0412 11.2556C51.9269 11.17 50.8579 10.7635 49.9556 10.0822C49.0533 9.40093 48.3536 8.47211 47.9359 7.40097C47.5024 6.27427 46.8342 5.26001 45.9787 4.43015C45.1233 3.60029 44.1016 2.97518 42.9862 2.59919C41.8708 2.22319 40.689 2.10551 39.5246 2.25452C38.3603 2.40353 37.2419 2.81556 36.2489 3.46137C35.3025 4.07268 34.2089 4.39674 33.0928 4.39657C31.9767 4.3964 30.8832 4.07201 29.937 3.46041C28.944 2.81506 27.8258 2.40341 26.6616 2.25467C25.4975 2.10594 24.3159 2.22375 23.2008 2.59976C22.0856 2.97578 21.0642 3.60077 20.2089 4.43042C19.3536 5.26007 18.6855 6.27405 18.2518 7.40043C17.8329 8.47338 17.1314 9.4035 16.2269 10.0852C15.3223 10.767 14.251 11.173 13.1344 11.2572C11.963 11.3444 10.8242 11.6958 9.79837 12.2867C8.77248 12.8776 7.88438 13.6937 7.19654 14.6776C6.5087 15.6614 6.03785 16.7891 5.81712 17.9812C5.5964 19.1734 5.63115 20.401 5.91895 21.5778C6.18549 22.7048 6.14291 23.8863 5.79596 24.9897C5.44902 26.093 4.81144 27.0747 3.95477 27.8245C3.05716 28.608 2.33604 29.5847 1.84184 30.6863C1.34764 31.7879 1.09231 32.9879 1.09369 34.2021C1.09508 35.4164 1.35316 36.6156 1.84987 37.7161C2.34658 38.8165 3.06993 39.7914 3.96932 40.5728C4.82331 41.3248 5.45765 42.308 5.80122 43.4118C6.14478 44.5157 6.18398 45.6966 5.9144 46.8222C5.62898 47.9993 5.59655 49.2267 5.8194 50.4181C6.04224 51.6096 6.51496 52.7361 7.20429 53.7184C7.89362 54.7008 8.78283 55.5151 9.80938 56.1042C10.8359 56.6933 11.9749 57.0428 13.1462 57.1281C14.2606 57.2138 15.3295 57.6203 16.2318 58.3016C17.1341 58.9828 17.8338 59.9117 18.2515 60.9828C18.6851 62.1095 19.3533 63.1238 20.2087 63.9536C21.0641 64.7835 22.0858 65.4086 23.2012 65.7846C24.3166 66.1606 25.4985 66.2783 26.6628 66.1293C27.8272 65.9803 28.9455 65.5682 29.9385 64.9224C30.8846 64.3112 31.978 63.9871 33.0937 63.9871C34.2095 63.9871 35.3028 64.3112 36.2489 64.9224L36.8003 64.0206L36.2505 64.9234C37.2434 65.5687 38.3617 65.9804 39.5258 66.1291C40.69 66.2778 41.8715 66.16 42.9867 65.784C44.1018 65.408 45.1233 64.783 45.9785 63.9534C46.8338 63.1237 47.502 62.1097 47.9356 60.9834C48.3545 59.9104 49.056 58.9803 49.9606 58.2986C50.8651 57.6168 51.9365 57.2108 53.053 57.1265C54.2245 57.0394 55.3632 56.688 56.3891 56.0971C57.415 55.5061 58.3031 54.69 58.9909 53.7062C59.6787 52.7224 60.1496 51.5947 60.3703 50.4025C60.591 49.2104 60.5563 47.9827 60.2685 46.806C60.0019 45.679 60.0445 44.4975 60.3915 43.3942C60.7384 42.2908 61.376 41.3092 62.2327 40.5594C63.1303 39.7759 63.8514 38.7992 64.3456 37.6975C64.8397 36.5959 65.0951 35.396 65.0937 34.1818C65.0923 32.9675 64.8342 31.7683 64.3375 30.6678C63.8408 29.5674 63.1176 28.5927 62.2182 27.8113ZM60.8875 38.941C59.7397 39.9511 58.8867 41.2715 58.4241 42.7544C57.9616 44.2373 57.9077 45.824 58.2686 47.3367C58.4814 48.2114 58.5061 49.1237 58.341 50.0093C58.1759 50.8949 57.8251 51.7324 57.3131 52.4628C56.8012 53.1932 56.1406 53.7988 55.3778 54.237C54.615 54.6752 53.7686 54.9354 52.8981 54.9991C51.3968 55.114 49.9567 55.6611 48.741 56.5785C47.5253 57.496 46.5825 58.747 46.0196 60.1899C45.6984 61.0262 45.203 61.7792 44.5685 62.3954C43.9341 63.0116 43.1761 63.4758 42.3485 63.7552C41.5208 64.0346 40.6438 64.1222 39.7797 64.0119C38.9156 63.9016 38.0856 63.596 37.3487 63.1169C36.0726 62.2923 34.5978 61.8551 33.0928 61.8552C31.5878 61.8553 30.1131 62.2927 28.8371 63.1174C28.1002 63.5964 27.2703 63.902 26.4063 64.0122C25.5423 64.1225 24.6655 64.0348 23.838 63.7553C23.0105 63.4759 22.2526 63.0116 21.6183 62.3954C20.984 61.7792 20.4888 61.0262 20.1678 60.1899C19.6035 58.7455 18.6588 57.4936 17.4408 56.5761C16.2228 55.6586 14.7804 55.1122 13.2772 54.9991C12.4123 54.9373 11.571 54.6801 10.8128 54.2456C10.0546 53.811 9.39792 53.2098 8.88916 52.4842C8.37166 51.7495 8.01684 50.906 7.84986 50.0137C7.68287 49.1215 7.70779 48.2021 7.92287 47.3209C8.28071 45.8069 8.22349 44.2198 7.75762 42.7375C7.29175 41.2552 6.43564 39.9362 5.28524 38.9285C4.61759 38.3453 4.0813 37.6183 3.71391 36.7985C3.34651 35.9787 3.15688 35.0859 3.15828 34.1824C3.15967 33.2789 3.35206 32.3867 3.72199 31.5681C4.09192 30.7495 4.63045 30.0244 5.2999 29.4433C6.44773 28.4333 7.30072 27.1128 7.76329 25.6299C8.22585 24.147 8.27971 22.5603 7.91884 21.0476C7.70608 20.1729 7.68137 19.2607 7.84645 18.375C8.01153 17.4894 8.36238 16.6519 8.87433 15.9215C9.38627 15.1911 10.0469 14.5855 10.8096 14.1473C11.5724 13.7091 12.4188 13.449 13.2894 13.3852C14.7907 13.2703 16.2308 12.7231 17.4465 11.8056C18.6623 10.888 19.605 9.63687 20.1678 8.19392C20.4883 7.35697 20.9833 6.60331 21.6177 5.98659C22.2521 5.36986 23.0102 4.90523 23.8381 4.62576C24.666 4.34629 25.5433 4.25886 26.4076 4.36968C27.272 4.4805 28.102 4.78685 28.8388 5.26693C30.1147 6.09183 31.5895 6.52926 33.0945 6.52926C34.5996 6.52926 36.0743 6.09183 37.3503 5.26693C38.0872 4.78786 38.917 4.48233 39.781 4.37204C40.645 4.26175 41.5218 4.34941 42.3493 4.62879C43.1768 4.90818 43.9347 5.37243 44.569 5.98858C45.2033 6.60473 45.6986 7.35767 46.0196 8.19392C46.5839 9.63826 47.5287 10.8902 48.7466 11.8077C49.9646 12.7252 51.407 13.2715 52.9103 13.3847C53.7752 13.4464 54.6164 13.7037 55.3747 14.1382C56.1329 14.5728 56.7895 15.174 57.2983 15.8995C57.8158 16.6343 58.1706 17.4778 58.3376 18.37C58.5046 19.2623 58.4796 20.1816 58.2646 21.0629C57.9067 22.577 57.9639 24.1643 58.4299 25.6467C58.8959 27.1291 59.7521 28.4481 60.9027 29.4558C61.5704 30.039 62.1066 30.766 62.474 31.5858C62.8414 32.4056 63.0311 33.2985 63.0297 34.2019C63.0283 35.1054 62.8359 35.9976 62.466 36.8162C62.096 37.6348 61.557 38.36 60.8875 38.941Z" fill="#00A3D3"/>
<path d="M33.0936 12.856C29.0103 12.856 25.0188 14.1073 21.6237 16.4517C18.2287 18.7962 15.5825 22.1284 14.02 26.0271C12.4574 29.9257 12.0485 34.2157 12.8451 38.3545C13.6417 42.4932 15.608 46.295 18.4953 49.2789C21.3825 52.2628 25.0611 54.2948 29.0659 55.1181C33.0707 55.9413 37.2217 55.5188 40.9941 53.9039C44.7665 52.2891 47.9908 49.5544 50.2594 46.0457C52.5279 42.537 53.7387 38.4119 53.7387 34.192C53.7324 28.5353 51.5553 23.1122 47.6849 19.1123C43.8146 15.1124 38.5671 12.8625 33.0936 12.856ZM33.0936 53.3944C29.4187 53.3944 25.8263 52.2682 22.7707 50.1582C19.7152 48.0483 17.3336 45.0492 15.9273 41.5405C14.521 38.0317 14.153 34.1707 14.87 30.4458C15.5869 26.7209 17.3565 23.2993 19.9551 20.6138C22.5536 17.9283 25.8644 16.0995 29.4687 15.3585C33.073 14.6176 36.8089 14.9979 40.2041 16.4513C43.5992 17.9046 46.5011 20.3659 48.5428 23.5237C50.5844 26.6815 51.6742 30.3941 51.6742 34.192C51.6687 39.2831 49.7094 44.164 46.226 47.7639C42.7426 51.3639 38.0198 53.3888 33.0936 53.3944Z" fill="#00A3D3"/>
</svg>
