<svg width="70" height="70" viewBox="0 0 70 70" fill="none" xmlns="http://www.w3.org/2000/svg">
<path d="M43.4766 4.82373H4V64.8237H52.8705V14.1336L43.4766 4.82373ZM44.1176 8.52572L49.1351 13.4984H44.1176V8.52572ZM50.6823 62.655H6.18828V6.99233H41.9294V15.667H50.6823V62.655Z" fill="#00A3D3"/>
<path d="M61.2589 12.4858L56.5177 23.7629V64.1003H66.0001V23.7629L61.2589 12.4858ZM63.8118 61.9316H58.7059V56.8713H63.8118V61.9316ZM63.8118 54.7027H58.7059V27.9558H63.8118V54.7027ZM63.8118 25.787H58.7059V24.1967L61.2588 18.1243L63.8117 24.1967L63.8118 25.787Z" fill="#00A3D3"/>
<path d="M46.6704 53.2573H28.4352V55.426H46.6704V53.2573Z" fill="#00A3D3"/>
<path d="M43.5272 47.8905C42.9378 48.6376 42.6627 48.9199 42.1077 48.9199C41.5528 48.9199 41.2776 48.6375 40.6883 47.8905C40.0683 47.1046 39.219 46.0283 37.5449 46.0283C35.8721 46.0283 35.0241 47.1049 34.4049 47.8913C33.8168 48.6378 33.5424 48.9199 32.9896 48.9199C32.4372 48.9199 32.1629 48.6378 31.575 47.8914C30.9556 47.1052 30.1077 46.0283 28.4352 46.0283V48.197C28.9876 48.197 29.2619 48.4791 29.8498 49.2255C30.4689 50.0117 31.317 51.0886 32.9893 51.0886C34.6621 51.0886 35.5101 50.012 36.1293 49.2257C36.7174 48.4791 36.9918 48.197 37.5446 48.197C38.0997 48.197 38.3747 48.4794 38.964 49.2265C39.584 50.0125 40.4333 51.0887 42.1074 51.0887C43.7815 51.0887 44.6307 50.0125 45.2507 49.2265C45.8401 48.4794 46.1152 48.197 46.6702 48.197V46.0283C44.9963 46.0284 44.1472 47.1047 43.5272 47.8905Z" fill="#00A3D3"/>
<path d="M32.0823 57.5942H28.4352V59.763H32.0823V57.5942Z" fill="#00A3D3"/>
<path d="M37.9177 57.5942H34.2706V59.763H37.9177V57.5942Z" fill="#00A3D3"/>
<path d="M46.6705 57.5942H43.0234V59.763H46.6705V57.5942Z" fill="#00A3D3"/>
<path d="M24.7882 10.6064H10.2V12.7752H24.7882V10.6064Z" fill="#00A3D3"/>
<path d="M29.894 22.1729H10.2V24.3416H29.894V22.1729Z" fill="#00A3D3"/>
<path d="M19.6823 46.0283H10.2V48.197H19.6823V46.0283Z" fill="#00A3D3"/>
<path d="M19.6823 51.8115H10.2V53.9802H19.6823V51.8115Z" fill="#00A3D3"/>
<path d="M46.6704 27.9565H10.2V30.1253H46.6704V27.9565Z" fill="#00A3D3"/>
<path d="M46.6704 33.7393H10.2V35.908H46.6704V33.7393Z" fill="#00A3D3"/>
<path d="M46.6706 39.5225H13.847V41.6912H46.6706V39.5225Z" fill="#00A3D3"/>
<path d="M13.847 14.9443H10.2V17.1131H13.847V14.9443Z" fill="#00A3D3"/>
<path d="M19.6823 14.9443H16.0352V17.1131H19.6823V14.9443Z" fill="#00A3D3"/>
</svg>
