<svg width="70" height="70" viewBox="0 0 70 70" fill="none" xmlns="http://www.w3.org/2000/svg">
<path d="M70 51.2012V36.0254H16.2695V16.3379H25.0195V7.58789H53.5938V23.0371H30.3829L19.5821 28.4375L30.3829 33.8379H66.582V23.0371H55.6445V5.53711H23.6377L14.2188 14.8195V36.0254H0V51.2012H14.2188V64.4629H55.6445V54.6191H53.5938V62.4121H16.2695V51.2012H70ZM29.5312 31.0849L24.0994 28.3691L29.5312 25.6532V31.0849ZM53.5938 31.7871H31.582V29.4629H53.5938V31.7871ZM53.5938 27.4121H31.582V25.0879H53.5938V27.4121ZM60.0195 25.0879H64.5312V31.7871H60.0195V25.0879ZM55.6445 25.0879H57.9688V31.7871H55.6445V25.0879ZM22.9688 8.96957V14.2871H17.7879L22.9688 8.96957ZM2.05078 38.0762H5.46875V39.3066H7.51953V38.0762H9.84375V41.4941H11.8945V38.0762H14.2188V39.3066H16.2695V38.0762H18.5938V41.4941H20.6445V38.0762H22.9688V39.3066H25.0195V38.0762H27.3438V41.4941H29.3945V38.0762H31.7188V39.3066H33.7695V38.0762H36.0938V41.4941H38.1445V38.0762H40.4688V39.3066H42.5195V38.0762H44.8438V41.4941H46.8945V38.0762H49.2188V39.3066H51.2695V38.0762H53.5938V41.4941H55.6445V38.0762H57.9688V39.3066H60.0195V38.0762H62.3438V41.4941H64.3945V38.0762H67.9492V44.7754H2.05078V38.0762ZM2.05078 49.1504V46.8262H67.9492V49.1504H2.05078Z" fill="#00A3D3"/>
<path d="M63.3008 28.3691H61.25V30.5566H63.3008V28.3691Z" fill="#00A3D3"/>
</svg>
