<svg width="24" height="24" viewBox="0 0 24 24" fill="none" xmlns="http://www.w3.org/2000/svg">
<path d="M4.48364 1.10696C4.10872 1.11829 3.77935 1.31615 3.50366 1.59182L3.0437 2.05104L8.02857 7.12673L8.7522 6.4031C9.18831 5.967 9.1883 5.24693 8.7522 4.81082L5.53247 1.59182C5.22062 1.27996 4.85855 1.09543 4.48364 1.10696ZM2.51197 2.58133L1.98389 3.10867C1.11979 3.97276 1.12549 5.10339 1.12549 5.62528C1.12549 7.78474 1.98881 11.5181 7.23462 16.7639C12.4804 22.0098 16.2146 22.8738 18.374 22.8738C18.896 22.8738 20.0266 22.8795 20.8906 22.0154L21.3682 21.5378L16.3833 16.4622L15.8604 16.9859C15.5504 17.2958 15.3218 17.3328 15.0994 17.3066C14.877 17.2806 14.6471 17.1519 14.479 17.0217C13.5623 16.312 12.0781 15.2962 10.3906 13.6087C8.70312 11.9212 7.68725 10.4362 6.97754 9.51954C6.84743 9.35143 6.71878 9.12448 6.69263 8.9021C6.66642 8.67972 6.70666 8.44813 7.01636 8.13821L7.49756 7.65701L2.51197 2.58133ZM18.3916 14.9197C18.1027 14.9197 17.8142 15.029 17.5962 15.2471L16.9136 15.9305L21.8992 21.0068L22.4075 20.4986C22.6831 20.2229 22.8801 19.8906 22.8916 19.5156C22.9029 19.1407 22.7193 18.7787 22.4075 18.4668L19.1877 15.2471C18.9697 15.029 18.6805 14.9197 18.3916 14.9197Z" fill="#00A3D3"/>
</svg>
